G04 DipTrace 3.3.1.3*
G04 badge-TopAssy.gbr*
%MOMM*%
G04 #@! TF.FileFunction,Drawing,Top*
G04 #@! TF.Part,Single*
%ADD13C,0.03125*%
%ADD58C,0.15686*%
%FSLAX35Y35*%
G04*
G71*
G90*
G75*
G01*
G04 TopAssy*
%LPD*%
X4375000Y4875000D2*
D13*
X4900000Y5875000D1*
X6084826D1*
X0Y5100000D2*
Y6300000D1*
X8600000Y5100000D2*
Y6300000D1*
X4300000Y6250000D2*
X100000D1*
G36*
X0D2*
X100000Y6270000D1*
Y6230000D1*
X0Y6250000D1*
G37*
X4300000D2*
D13*
X8500000D1*
G36*
X8600000D2*
X8500000Y6230000D1*
Y6270000D1*
X8600000Y6250000D1*
G37*
X300000Y5400000D2*
D13*
X-1050000D1*
X300000Y0D2*
X-1050000D1*
X-1000000Y2700000D2*
Y5300000D1*
G36*
Y5400000D2*
X-980000Y5300000D1*
X-1020000D1*
X-1000000Y5400000D1*
G37*
Y2700000D2*
D13*
Y100000D1*
G36*
Y0D2*
X-1020000Y100000D1*
X-980000D1*
X-1000000Y0D1*
G37*
X4975902Y6008103D2*
D58*
Y5906015D1*
X4907843Y6008103D1*
Y5906015D1*
X5031533Y5974074D2*
X5021874Y5969245D1*
X5012103Y5959474D1*
X5007274Y5944874D1*
Y5935215D1*
X5012103Y5920615D1*
X5021874Y5910957D1*
X5031533Y5906015D1*
X5046133D1*
X5055903Y5910957D1*
X5065562Y5920615D1*
X5070503Y5935215D1*
Y5944874D1*
X5065562Y5959474D1*
X5055903Y5969245D1*
X5046133Y5974074D1*
X5031533D1*
X5101876D2*
Y5906015D1*
Y5954645D2*
X5116476Y5969245D1*
X5126247Y5974074D1*
X5140734D1*
X5150505Y5969245D1*
X5155334Y5954645D1*
Y5906015D1*
X5186707Y5957003D2*
X5242861D1*
X5274233Y5954645D2*
X5318033D1*
X5332521Y5959474D1*
X5337463Y5964415D1*
X5342292Y5974074D1*
Y5988674D1*
X5337463Y5998332D1*
X5332521Y6003274D1*
X5318033Y6008103D1*
X5274233D1*
Y5906015D1*
X5373664Y6008103D2*
Y5906015D1*
X5463325Y5974074D2*
Y5906015D1*
Y5959474D2*
X5453666Y5969245D1*
X5443895Y5974074D1*
X5429408D1*
X5419637Y5969245D1*
X5409978Y5959474D1*
X5405037Y5944874D1*
Y5935215D1*
X5409978Y5920615D1*
X5419637Y5910957D1*
X5429408Y5906015D1*
X5443895D1*
X5453666Y5910957D1*
X5463325Y5920615D1*
X5509297Y6008103D2*
Y5925445D1*
X5514126Y5910957D1*
X5523897Y5906015D1*
X5533556D1*
X5494697Y5974074D2*
X5528726D1*
X5564928Y5944874D2*
X5623216D1*
Y5954645D1*
X5618387Y5964415D1*
X5613557Y5969245D1*
X5603787Y5974074D1*
X5589187D1*
X5579528Y5969245D1*
X5569757Y5959474D1*
X5564928Y5944874D1*
Y5935215D1*
X5569757Y5920615D1*
X5579528Y5910957D1*
X5589187Y5906015D1*
X5603787D1*
X5613557Y5910957D1*
X5623216Y5920615D1*
X5712876Y6008103D2*
Y5906015D1*
Y5959474D2*
X5703218Y5969245D1*
X5693447Y5974074D1*
X5678847D1*
X5669188Y5969245D1*
X5659418Y5959474D1*
X5654588Y5944874D1*
Y5935215D1*
X5659418Y5920615D1*
X5669188Y5910957D1*
X5678847Y5906015D1*
X5693447D1*
X5703218Y5910957D1*
X5712876Y5920615D1*
X5896464Y5959474D2*
X5891635Y5969245D1*
X5877035Y5974074D1*
X5862435D1*
X5847835Y5969245D1*
X5843006Y5959474D1*
X5847835Y5949815D1*
X5857606Y5944874D1*
X5881864Y5940045D1*
X5891635Y5935215D1*
X5896464Y5925445D1*
Y5920615D1*
X5891635Y5910957D1*
X5877035Y5906015D1*
X5862435D1*
X5847835Y5910957D1*
X5843006Y5920615D1*
X5927837Y6008103D2*
Y5906015D1*
X5983468Y5974074D2*
X5973809Y5969245D1*
X5964039Y5959474D1*
X5959209Y5944874D1*
Y5935215D1*
X5964039Y5920615D1*
X5973809Y5910957D1*
X5983468Y5906015D1*
X5998068D1*
X6007839Y5910957D1*
X6017497Y5920615D1*
X6022439Y5935215D1*
Y5944874D1*
X6017497Y5959474D1*
X6007839Y5969245D1*
X5998068Y5974074D1*
X5983468D1*
X6068411Y6008103D2*
Y5925445D1*
X6073240Y5910957D1*
X6083011Y5906015D1*
X6092670D1*
X6053811Y5974074D2*
X6087840D1*
X4063103Y6382991D2*
X4048616Y6378161D1*
X4043674Y6368503D1*
Y6358732D1*
X4048616Y6349074D1*
X4058274Y6344132D1*
X4077703Y6339303D1*
X4092303Y6334474D1*
X4101962Y6324703D1*
X4106791Y6315045D1*
Y6300445D1*
X4101962Y6290786D1*
X4097133Y6285845D1*
X4082533Y6281015D1*
X4063103D1*
X4048616Y6285845D1*
X4043674Y6290786D1*
X4038845Y6300445D1*
Y6315045D1*
X4043674Y6324703D1*
X4053445Y6334474D1*
X4067933Y6339303D1*
X4087362Y6344132D1*
X4097133Y6349074D1*
X4101962Y6358732D1*
Y6368503D1*
X4097133Y6378161D1*
X4082533Y6382991D1*
X4063103D1*
X4196451Y6368503D2*
X4191622Y6378161D1*
X4177022Y6382991D1*
X4167364D1*
X4152764Y6378161D1*
X4142993Y6363561D1*
X4138164Y6339303D1*
Y6315045D1*
X4142993Y6295615D1*
X4152764Y6285845D1*
X4167364Y6281015D1*
X4172193D1*
X4186681Y6285845D1*
X4196451Y6295615D1*
X4201281Y6310215D1*
Y6315045D1*
X4196451Y6329645D1*
X4186681Y6339303D1*
X4172193Y6344132D1*
X4167364D1*
X4152764Y6339303D1*
X4142993Y6329645D1*
X4138164Y6315045D1*
X4331410Y6349074D2*
Y6281015D1*
Y6329645D2*
X4346010Y6344245D1*
X4355781Y6349074D1*
X4370269D1*
X4380040Y6344245D1*
X4384869Y6329645D1*
Y6281015D1*
Y6329645D2*
X4399469Y6344245D1*
X4409240Y6349074D1*
X4423727D1*
X4433498Y6344245D1*
X4438440Y6329645D1*
Y6281015D1*
X4469812Y6349074D2*
Y6281015D1*
Y6329645D2*
X4484412Y6344245D1*
X4494183Y6349074D1*
X4508671D1*
X4518441Y6344245D1*
X4523271Y6329645D1*
Y6281015D1*
Y6329645D2*
X4537871Y6344245D1*
X4547641Y6349074D1*
X4562129D1*
X4571900Y6344245D1*
X4576841Y6329645D1*
Y6281015D1*
X-1132991Y2492191D2*
Y2443674D1*
X-1089303Y2438845D1*
X-1094132Y2443674D1*
X-1099074Y2458274D1*
Y2472762D1*
X-1094132Y2487362D1*
X-1084474Y2497133D1*
X-1069874Y2501962D1*
X-1060215D1*
X-1045615Y2497133D1*
X-1035845Y2487362D1*
X-1031015Y2472762D1*
Y2458274D1*
X-1035845Y2443674D1*
X-1040786Y2438845D1*
X-1050445Y2433903D1*
X-1031015Y2581964D2*
X-1132991D1*
X-1065045Y2533334D1*
Y2606222D1*
X-1099074Y2736352D2*
X-1031015D1*
X-1079645D2*
X-1094245Y2750952D1*
X-1099074Y2760723D1*
Y2775210D1*
X-1094245Y2784981D1*
X-1079645Y2789810D1*
X-1031015D1*
X-1079645D2*
X-1094245Y2804410D1*
X-1099074Y2814181D1*
Y2828669D1*
X-1094245Y2838440D1*
X-1079645Y2843381D1*
X-1031015D1*
X-1099074Y2874754D2*
X-1031015D1*
X-1079645D2*
X-1094245Y2889354D1*
X-1099074Y2899124D1*
Y2913612D1*
X-1094245Y2923383D1*
X-1079645Y2928212D1*
X-1031015D1*
X-1079645D2*
X-1094245Y2942812D1*
X-1099074Y2952583D1*
Y2967071D1*
X-1094245Y2976841D1*
X-1079645Y2981783D1*
X-1031015D1*
M02*
