M48
METRIC,0000.00
T01C0.5
%
T01
X+005100Y+001500
X+004800Y+000950
X+004300Y+001550
X+004300Y+002425
X+005800Y+001500
X+005800Y+000900
X+005788Y+000412
X+006200Y+000200
X+006325Y+000750
X+006800Y+000425
X+007100Y+000425
X+007250Y+000175
X+007400Y+000425
X+007700Y+000425
X+008200Y+000400
X+008200Y+002300
X+008400Y+002700
X+006325Y+002100
X+004300Y+000200
X+002400Y+000200
X+001950Y+000375
X+002025Y+000625
X+002325Y+000950
X+002300Y+001200
X+001700Y+001600
X+001000Y+001600
X+001300Y+000950
X+001400Y+000625
X+001450Y+000375
X+001700Y+000200
X+000400Y+000400
X+000200Y+002700
X+000400Y+005000
X+002400Y+005200
X+004300Y+005225
X+006200Y+005200
X+008200Y+005000
T00
M30
