G04 DipTrace 3.3.1.3*
G04 badge-Top.gbr*
%MOMM*%
G04 #@! TF.FileFunction,Copper,L1,Top*
G04 #@! TF.Part,Single*
G04 #@! TA.AperFunction,Conductor*
%ADD14C,0.4*%
G04 #@! TA.AperFunction,CopperBalancing*
%ADD15C,1.0*%
%ADD16C,0.6*%
%ADD18R,6.5X3.2*%
%ADD19R,1.3X1.5*%
%ADD20R,1.6X1.8*%
%ADD25R,2.0X2.0*%
%ADD27R,1.7X0.8*%
%ADD28R,1.1X0.8*%
%ADD30R,0.6X1.1*%
G04 #@! TA.AperFunction,ViaPad*
%ADD31C,1.1*%
%FSLAX35Y35*%
G04*
G71*
G90*
G75*
G01*
G04 Top*
%LPD*%
X1600000Y770000D2*
D14*
Y900000D1*
X1550000Y950000D1*
X1300000D1*
X625000D1*
X575000Y1000000D1*
Y1200000D1*
X1550000D2*
X1350000D1*
X1300000Y1150000D1*
Y950000D1*
X7700000Y600000D2*
Y425000D1*
X1695000Y500000D2*
Y200000D1*
X1700000D1*
X1790000Y500000D2*
Y410000D1*
X1825000Y375000D1*
X1950000D1*
X7100000Y600000D2*
Y425000D1*
X1600000Y500000D2*
Y400000D1*
X1575000Y375000D1*
X1450000D1*
X6800000Y600000D2*
Y425000D1*
X1790000Y770000D2*
X1955000D1*
X2025000Y700000D1*
Y625000D1*
X1400000D2*
X1225000D1*
X1165000Y565000D1*
Y400000D1*
X7400000Y600000D2*
Y425000D1*
X5787500Y412500D2*
X5575000Y625000D1*
X2025000D1*
X975000Y400000D2*
Y695000D1*
X980000Y700000D1*
X1695000Y770000D2*
Y795000D1*
X2800000Y1200000D2*
X2300000D1*
X1950000D1*
X1740000D1*
X1950000Y950000D2*
Y1200000D1*
X6500000Y600000D2*
X6375000D1*
X6325000Y650000D1*
Y750000D1*
Y2100000D2*
X6500000D1*
X1695000Y770000D2*
Y895000D1*
X1750000Y950000D1*
X1950000D1*
D31*
X1300000D3*
X7700000Y425000D3*
X1950000Y375000D3*
X7100000Y425000D3*
X1450000Y375000D3*
X6800000Y425000D3*
X2025000Y625000D3*
X1400000D3*
X7400000Y425000D3*
X5787500Y412500D3*
X6325000Y750000D3*
Y2100000D3*
Y750000D3*
X5100000Y1500000D3*
X2300000Y1200000D3*
X5800000Y900000D3*
Y1500000D3*
X8200000Y400000D3*
Y5000000D3*
X400000D3*
Y400000D3*
X4300000Y5225000D3*
Y200000D3*
X1700000D3*
X1000000Y1600000D3*
X2325000Y950000D3*
X1700000Y1600000D3*
X4300000Y1550000D3*
X6200000Y200000D3*
X4300000Y2425000D3*
X8400000Y2700000D3*
X2400000Y5200000D3*
X6200000D3*
X200000Y2700000D3*
X8200000Y2300000D3*
X2400000Y200000D3*
X7250000Y175000D3*
X4800000Y950000D3*
X220477Y5150333D2*
D15*
X3546530D1*
X5053483D2*
X8368963D1*
X160047Y5050667D2*
X3453833D1*
X5146087D2*
X8439967D1*
X160047Y4951000D2*
X3418380D1*
X5181633D2*
X8439967D1*
X160047Y4851333D2*
X3417923D1*
X5182090D2*
X8439967D1*
X160047Y4751667D2*
X3452560D1*
X5147453D2*
X8439967D1*
X160047Y4652000D2*
X3543157D1*
X5056857D2*
X8439967D1*
X160047Y4552333D2*
X8439967D1*
X160047Y4452667D2*
X8439967D1*
X160047Y4353000D2*
X8439967D1*
X160047Y4253333D2*
X8439967D1*
X160047Y4153667D2*
X8439967D1*
X160047Y4054000D2*
X8439967D1*
X160047Y3954333D2*
X8439967D1*
X160047Y3854667D2*
X8439967D1*
X160047Y3755000D2*
X8439967D1*
X160047Y3655333D2*
X8439967D1*
X160047Y3555667D2*
X8439967D1*
X160047Y3456000D2*
X8439967D1*
X160047Y3356333D2*
X8439967D1*
X160047Y3256667D2*
X8439967D1*
X160047Y3157000D2*
X8439967D1*
X160047Y3057333D2*
X8439967D1*
X160047Y2957667D2*
X8439967D1*
X160047Y2858000D2*
X8439967D1*
X160047Y2758333D2*
X8439967D1*
X160047Y2658667D2*
X8439967D1*
X160047Y2559000D2*
X8439967D1*
X160047Y2459333D2*
X8439967D1*
X160047Y2359667D2*
X8439967D1*
X160047Y2260000D2*
X6260580D1*
X8223990D2*
X8439967D1*
X160047Y2160333D2*
X6157130D1*
X8223990D2*
X8439967D1*
X160047Y2060667D2*
X6150657D1*
X8223990D2*
X8439967D1*
X160047Y1961000D2*
X6218833D1*
X8223990D2*
X8439967D1*
X160047Y1861333D2*
X6275983D1*
X8223990D2*
X8439967D1*
X160047Y1761667D2*
X6275983D1*
X8223990D2*
X8439967D1*
X160047Y1662000D2*
X365997D1*
X784030D2*
X6275983D1*
X8223990D2*
X8439967D1*
X160047Y1562333D2*
X365997D1*
X784030D2*
X3071297D1*
X4758900D2*
X6275983D1*
X8223990D2*
X8439967D1*
X160047Y1462667D2*
X365997D1*
X919017D2*
X2350970D1*
X4831907D2*
X5351037D1*
X8223990D2*
X8439967D1*
X160047Y1363000D2*
X560957D1*
X919017D2*
X1361037D1*
X1929003D2*
X2245333D1*
X4832547D2*
X5351037D1*
X8223990D2*
X8439967D1*
X160047Y1263333D2*
X365997D1*
X919017D2*
X1213833D1*
X4832547D2*
X5351037D1*
X8223990D2*
X8439967D1*
X160047Y1163667D2*
X365997D1*
X784030D2*
X1156687D1*
X4832547D2*
X5351037D1*
X8223990D2*
X8439967D1*
X160047Y1064000D2*
X365997D1*
X4832547D2*
X5351037D1*
X8223990D2*
X8439967D1*
X160047Y964333D2*
X435813D1*
X4832547D2*
X5351037D1*
X8223990D2*
X8439967D1*
X160047Y864667D2*
X495970D1*
X2329043D2*
X3032287D1*
X4797910D2*
X6190853D1*
X8223990D2*
X8439967D1*
X160047Y765000D2*
X495970D1*
X2329043D2*
X6146647D1*
X8223990D2*
X8439967D1*
X160047Y665333D2*
X495970D1*
X5734160D2*
X6168703D1*
X8223990D2*
X8439967D1*
X160047Y565667D2*
X495970D1*
X5868963D2*
X6210903D1*
X8223990D2*
X8439967D1*
X160047Y466000D2*
X785997D1*
X2102363D2*
X5534513D1*
X5957833D2*
X6275983D1*
X8223990D2*
X8439967D1*
X160047Y366333D2*
X785997D1*
X2128797D2*
X5614903D1*
X5960110D2*
X6631543D1*
X7868523D2*
X8439967D1*
X214003Y266667D2*
X785997D1*
X1663860D2*
X1736100D1*
X2089693D2*
X5692103D1*
X5882910D2*
X6730893D1*
X6869107D2*
X7030943D1*
X7169070D2*
X7330903D1*
X7469120D2*
X7630867D1*
X7769083D2*
X8385917D1*
X313717Y167000D2*
X8286297D1*
X2384333Y1474000D2*
X3010050D1*
X3013670Y1487853D1*
X3021027Y1505613D1*
X3031070Y1522003D1*
X3043553Y1536620D1*
X3058170Y1549103D1*
X3074560Y1559150D1*
X3092320Y1566503D1*
X3111013Y1570993D1*
X3130213Y1572500D1*
X4709650Y1572123D1*
X4728637Y1569117D1*
X4746920Y1563177D1*
X4764047Y1554450D1*
X4779597Y1543150D1*
X4793190Y1529557D1*
X4804490Y1514007D1*
X4813217Y1496880D1*
X4819157Y1478597D1*
X4822163Y1459610D1*
X4822540Y1380000D1*
X4822163Y940390D1*
X4819157Y921403D1*
X4813217Y903120D1*
X4804490Y885993D1*
X4793190Y870443D1*
X4779597Y856850D1*
X4764047Y845550D1*
X4746920Y836823D1*
X4728637Y830883D1*
X4709650Y827877D1*
X4630040Y827500D1*
X3120563Y827877D1*
X3101577Y830883D1*
X3083297Y836823D1*
X3066170Y845550D1*
X3050617Y856850D1*
X3037027Y870443D1*
X3025727Y885993D1*
X3017000Y903120D1*
X3011053Y921440D1*
X3005667Y926000D1*
X2361000D1*
Y1042393D1*
X2339453Y1035670D1*
X2318973Y1032197D1*
X2319000Y761000D1*
X2144413Y760797D1*
X2165000Y759000D1*
X5585513Y758587D1*
X5606283Y755297D1*
X5626280Y748800D1*
X5645013Y739253D1*
X5662027Y726893D1*
X5719250Y670253D1*
X5809417Y580090D1*
X5826953Y576830D1*
X5852173Y568637D1*
X5875803Y556597D1*
X5897257Y541010D1*
X5916010Y522257D1*
X5931597Y500803D1*
X5943637Y477173D1*
X5951830Y451953D1*
X5955980Y425760D1*
Y399240D1*
X5951830Y373047D1*
X5943637Y347827D1*
X5931597Y324197D1*
X5916010Y302743D1*
X5897257Y283990D1*
X5875803Y268403D1*
X5852173Y256363D1*
X5826953Y248170D1*
X5800760Y244020D1*
X5774240D1*
X5748047Y248170D1*
X5722827Y256363D1*
X5699197Y268403D1*
X5677743Y283990D1*
X5658990Y302743D1*
X5643403Y324197D1*
X5631363Y347827D1*
X5623170Y373047D1*
X5620063Y390437D1*
X5519443Y491053D1*
X2127957Y491000D1*
X2113303Y480903D1*
X2090380Y469190D1*
X2100580Y451723D1*
X2110730Y427223D1*
X2116920Y401437D1*
X2119000Y375000D1*
X2116920Y348563D1*
X2110730Y322777D1*
X2100580Y298277D1*
X2086723Y275663D1*
X2069500Y255500D1*
X2049337Y238277D1*
X2026723Y224420D1*
X2002223Y214270D1*
X1976437Y208080D1*
X1950000Y206000D1*
X1923563Y208080D1*
X1897777Y214270D1*
X1873277Y224420D1*
X1850663Y238277D1*
X1847203Y241003D1*
X1814487Y241413D1*
X1793717Y244703D1*
X1773720Y251200D1*
X1754987Y260747D1*
X1737973Y273107D1*
X1699890Y310603D1*
X1662027Y273107D1*
X1645013Y260747D1*
X1626280Y251200D1*
X1606283Y244703D1*
X1585513Y241413D1*
X1553033Y241000D1*
X1538303Y230903D1*
X1514673Y218863D1*
X1489453Y210670D1*
X1463260Y206520D1*
X1436740D1*
X1410547Y210670D1*
X1385327Y218863D1*
X1361697Y230903D1*
X1344030Y243507D1*
X1344000Y211000D1*
X796000D1*
Y496013D1*
X506000Y496000D1*
Y879487D1*
X473107Y912973D1*
X460747Y929987D1*
X451200Y948720D1*
X444703Y968717D1*
X441413Y989487D1*
X441000Y1046030D1*
X376000Y1046000D1*
Y1354000D1*
X570960D1*
X571000Y1385987D1*
X376000Y1386000D1*
Y1694000D1*
X774000D1*
Y1524013D1*
X909000Y1524000D1*
Y1216000D1*
X774013D1*
X774000Y1083933D1*
X1165950Y1084000D1*
X1166413Y1160513D1*
X1169703Y1181283D1*
X1176200Y1201280D1*
X1185747Y1220013D1*
X1198107Y1237027D1*
X1255247Y1294753D1*
X1271237Y1308410D1*
X1289167Y1319397D1*
X1308593Y1327443D1*
X1329037Y1332350D1*
X1350040Y1334000D1*
X1371000Y1337667D1*
Y1389000D1*
X1919000D1*
Y1334040D1*
X2197097Y1334000D1*
X2211697Y1344097D1*
X2235327Y1356137D1*
X2260547Y1364330D1*
X2286740Y1368480D1*
X2313260D1*
X2339453Y1364330D1*
X2361027Y1357480D1*
X2361000Y1474000D1*
X2384333D1*
X5365667D2*
X6239000D1*
Y926000D1*
X5361000D1*
Y1474000D1*
X5365667D1*
X3700090Y5201200D2*
X4909900Y5200810D1*
X4931743Y5197227D1*
X4955710Y5191757D1*
X4986547Y5181023D1*
X5005547Y5172423D1*
X5027330Y5161023D1*
X5054413Y5142790D1*
X5070590Y5129630D1*
X5088750Y5113057D1*
X5110293Y5088520D1*
X5122583Y5071673D1*
X5135920Y5051017D1*
X5150497Y5021803D1*
X5158090Y5002380D1*
X5165720Y4979010D1*
X5172373Y4947043D1*
X5174763Y4926327D1*
X5176187Y4901783D1*
X5174473Y4869177D1*
X5171507Y4848533D1*
X5166630Y4824437D1*
X5156663Y4793347D1*
X5148533Y4774140D1*
X5137673Y4752083D1*
X5120113Y4724557D1*
X5107360Y4708057D1*
X5091237Y4689497D1*
X5067243Y4667353D1*
X5050703Y4654650D1*
X5030383Y4640810D1*
X5001540Y4625513D1*
X4982310Y4617443D1*
X4955673Y4608237D1*
X4919743Y4600353D1*
X4900000Y4598800D1*
X3692320Y4599033D1*
X3672710Y4601787D1*
X3640830Y4609250D1*
X3604187Y4622743D1*
X3569583Y4640830D1*
X3537590Y4663213D1*
X3508737Y4689523D1*
X3483503Y4719323D1*
X3462307Y4752117D1*
X3445503Y4787363D1*
X3433363Y4824477D1*
X3426093Y4862840D1*
X3423813Y4901820D1*
X3426563Y4940770D1*
X3434290Y4979047D1*
X3446873Y5016010D1*
X3464103Y5051050D1*
X3485690Y5083587D1*
X3511280Y5113080D1*
X3540447Y5139043D1*
X3572707Y5161043D1*
X3607527Y5178713D1*
X3640867Y5190763D1*
X3672710Y5198213D1*
X3692360Y5200967D1*
X6191003Y647203D2*
X6180903Y661697D1*
X6168863Y685327D1*
X6160670Y710547D1*
X6156520Y736740D1*
Y763260D1*
X6160670Y789453D1*
X6168863Y814673D1*
X6180903Y838303D1*
X6196490Y859757D1*
X6215243Y878510D1*
X6236697Y894097D1*
X6260327Y906137D1*
X6286007Y914420D1*
X6260327Y906137D1*
X6236697Y894097D1*
X6215243Y878510D1*
X6196490Y859757D1*
X6180903Y838303D1*
X6168863Y814673D1*
X6160670Y789453D1*
X6156520Y763260D1*
Y736740D1*
X6160670Y710547D1*
X6168863Y685327D1*
X6180903Y661697D1*
X6188277Y650663D1*
X6191413Y639487D1*
X6194703Y618717D1*
X6201200Y598720D1*
X6210747Y579987D1*
X6223107Y562973D1*
X6263747Y521747D1*
X6286000Y499840D1*
Y386000D1*
X6635580Y386007D1*
X6643863Y360327D1*
X6655903Y336697D1*
X6671490Y315243D1*
X6690243Y296490D1*
X6711697Y280903D1*
X6735327Y268863D1*
X6760547Y260670D1*
X6786740Y256520D1*
X6813260D1*
X6839453Y260670D1*
X6864673Y268863D1*
X6888303Y280903D1*
X6909757Y296490D1*
X6928510Y315243D1*
X6944097Y336697D1*
X6950003Y347237D1*
X6963277Y325663D1*
X6980500Y305500D1*
X7000663Y288277D1*
X7023277Y274420D1*
X7047777Y264270D1*
X7073563Y258080D1*
X7100000Y256000D1*
X7126437Y258080D1*
X7152223Y264270D1*
X7176723Y274420D1*
X7199337Y288277D1*
X7219500Y305500D1*
X7236723Y325663D1*
X7250003Y347237D1*
X7263277Y325663D1*
X7280500Y305500D1*
X7300663Y288277D1*
X7323277Y274420D1*
X7347777Y264270D1*
X7373563Y258080D1*
X7400000Y256000D1*
X7426437Y258080D1*
X7452223Y264270D1*
X7476723Y274420D1*
X7499337Y288277D1*
X7519500Y305500D1*
X7536723Y325663D1*
X7550003Y347237D1*
X7563277Y325663D1*
X7580500Y305500D1*
X7600663Y288277D1*
X7623277Y274420D1*
X7647777Y264270D1*
X7673563Y258080D1*
X7700000Y256000D1*
X7726437Y258080D1*
X7752223Y264270D1*
X7776723Y274420D1*
X7799337Y288277D1*
X7819500Y305500D1*
X7836723Y325663D1*
X7850580Y348277D1*
X7860730Y372777D1*
X7864457Y386000D1*
X8214000D1*
Y2314000D1*
X7026000D1*
X6286000D1*
X6285547Y2264330D1*
X6260327Y2256137D1*
X6236697Y2244097D1*
X6215243Y2228510D1*
X6196490Y2209757D1*
X6180903Y2188303D1*
X6168863Y2164673D1*
X6160670Y2139453D1*
X6156520Y2113260D1*
Y2086740D1*
X6160670Y2060547D1*
X6168863Y2035327D1*
X6180903Y2011697D1*
X6196490Y1990243D1*
X6215243Y1971490D1*
X6236697Y1955903D1*
X6260327Y1943863D1*
X6286000Y1935493D1*
Y914503D1*
X297683Y5249993D2*
X150033Y5081253D1*
X150000Y320767D1*
X320650Y150063D1*
X8279363Y150000D1*
X8449937Y320650D1*
X8450000Y5079233D1*
X8279350Y5249937D1*
X297670Y5250000D1*
X5800000Y1473910D2*
D16*
Y926090D1*
X5361090Y1200000D2*
X6238910D1*
X2140000Y950000D2*
Y761090D1*
Y950000D2*
X2318910D1*
X700000Y700000D2*
Y496090D1*
X506090Y700000D2*
X700000D1*
X8000000Y600000D2*
Y386090D1*
Y600000D2*
X8213910D1*
X8000000Y2313907D2*
Y2100000D1*
X8213910D1*
X575000Y1693910D2*
Y1386090D1*
X376090Y1540000D2*
X773910D1*
X571090Y1370000D2*
X908910D1*
D18*
X2800000Y1200000D3*
X5800000D3*
D19*
X1950000Y950000D3*
X2140000D3*
D20*
X700000Y700000D3*
X980000D3*
D25*
X6500000Y900000D3*
X6800000D3*
X7100000D3*
X7400000D3*
X7700000D3*
X8000000D3*
X6500000Y600000D3*
X6800000D3*
X7100000D3*
X7400000D3*
X7700000D3*
X8000000D3*
X6500000Y1500000D3*
X6800000D3*
X7100000D3*
X7400000D3*
X7700000D3*
X8000000D3*
X6500000Y1200000D3*
X6800000D3*
X7100000D3*
X7400000D3*
X7700000D3*
X8000000D3*
X6500000Y2100000D3*
X6800000D3*
X7100000D3*
X7400000D3*
X7700000D3*
X8000000D3*
X6500000Y1800000D3*
X6800000D3*
X7100000D3*
X7400000D3*
X7700000D3*
X8000000D3*
D19*
X975000Y400000D3*
X1165000D3*
X1550000Y1200000D3*
X1740000D3*
D27*
X575000D3*
Y1540000D3*
D28*
X740000Y1370000D3*
D30*
X1600000Y500000D3*
X1695000D3*
X1790000D3*
Y770000D3*
X1695000D3*
X1600000D3*
M02*
