G04 DipTrace 3.3.1.3*
G04 badge-BottomSilk.gbr*
%MOMM*%
G04 #@! TF.FileFunction,Legend,Bot*
G04 #@! TF.Part,Single*
%ADD21C,0.2*%
%ADD54C,0.19608*%
%ADD55C,0.23529*%
%FSLAX35Y35*%
G04*
G71*
G90*
G75*
G01*
G04 BotSilk*
%LPD*%
X4910000Y1300000D2*
D21*
X3690000D1*
Y1100000D1*
X4910000D1*
Y1300000D1*
X4710042D2*
Y1100000D1*
X3529446Y1260987D2*
D54*
Y1163840D1*
X3535483Y1145590D1*
X3541660Y1139554D1*
X3553733Y1133377D1*
X3565946D1*
X3578019Y1139554D1*
X3584056Y1145590D1*
X3590233Y1163840D1*
Y1175914D1*
X3490231Y1236560D2*
X3478017Y1242737D1*
X3459767Y1260846D1*
Y1133377D1*
X5496841Y1267917D2*
D55*
Y1114785D1*
X5340451Y1231529D2*
X5347695Y1246017D1*
X5362351Y1260673D1*
X5376839Y1267917D1*
X5405983D1*
X5420639Y1260673D1*
X5435126Y1246017D1*
X5442539Y1231529D1*
X5449783Y1209629D1*
Y1173073D1*
X5442539Y1151341D1*
X5435126Y1136685D1*
X5420639Y1122197D1*
X5405983Y1114785D1*
X5376839D1*
X5362351Y1122197D1*
X5347695Y1136685D1*
X5340451Y1151341D1*
X5191305Y1246017D2*
X5205792Y1260673D1*
X5227692Y1267917D1*
X5256836D1*
X5278736Y1260673D1*
X5293392Y1246017D1*
Y1231529D1*
X5285980Y1216873D1*
X5278736Y1209629D1*
X5264248Y1202385D1*
X5220448Y1187729D1*
X5205792Y1180485D1*
X5198548Y1173073D1*
X5191305Y1158585D1*
Y1136685D1*
X5205792Y1122197D1*
X5227692Y1114785D1*
X5256836D1*
X5278736Y1122197D1*
X5293392Y1136685D1*
X5144246Y1187729D2*
X5078546D1*
X5056814Y1194973D1*
X5049402Y1202385D1*
X5042158Y1216873D1*
Y1238773D1*
X5049402Y1253260D1*
X5056814Y1260673D1*
X5078546Y1267917D1*
X5144246D1*
Y1114785D1*
X4754532Y1040865D2*
D54*
X4882141Y992292D1*
X4754532Y943719D1*
X4797068Y904503D2*
X4924678D1*
X4815318D2*
X4803245Y892290D1*
X4797068Y880217D1*
Y861967D1*
X4803245Y849753D1*
X4815318Y837680D1*
X4833568Y831503D1*
X4845782D1*
X4863892Y837680D1*
X4876105Y849753D1*
X4882141Y861966D1*
Y880216D1*
X4876105Y892290D1*
X4863891Y904503D1*
X4797068Y792288D2*
X4924678Y792287D1*
X4815318D2*
X4803245Y780074D1*
X4797068Y768001D1*
Y749751D1*
X4803245Y737538D1*
X4815318Y725465D1*
X4833568Y719288D1*
X4845782D1*
X4863891Y725465D1*
X4876105Y737538D1*
X4882142Y749751D1*
Y768001D1*
X4876105Y780074D1*
X4863892Y792287D1*
X4504532Y1065584D2*
X4632141Y1017011D1*
X4504532Y968438D1*
Y856363D2*
X4632141D1*
X4565318D2*
X4553105Y868436D1*
X4547068Y880649D1*
Y898899D1*
X4553105Y910972D1*
X4565318Y923186D1*
X4583568Y929222D1*
X4595641D1*
X4613891Y923186D1*
X4625965Y910972D1*
X4632141Y898899D1*
Y880649D1*
X4625965Y868436D1*
X4613892Y856363D1*
X4504532Y744288D2*
X4632141D1*
X4565318D2*
X4553105Y756361D1*
X4547068Y768574D1*
Y786824D1*
X4553105Y798897D1*
X4565318Y811111D1*
X4583568Y817147D1*
X4595642D1*
X4613892Y811110D1*
X4625965Y798897D1*
X4632142Y786824D1*
X4632141Y768574D1*
X4625965Y756361D1*
X4613891Y744288D1*
X4259855Y962401D2*
X4247782Y968438D1*
X4235568Y980651D1*
X4229532Y992725D1*
Y1017011D1*
X4235568Y1029224D1*
X4247782Y1041298D1*
X4259855Y1047474D1*
X4278105Y1053511D1*
X4308568D1*
X4326678Y1047474D1*
X4338891Y1041297D1*
X4350964Y1029224D1*
X4357141Y1017011D1*
Y992724D1*
X4350965Y980651D1*
X4338891Y968438D1*
X4326678Y962401D1*
X4308568D1*
Y992724D1*
X4272068Y923186D2*
X4357141D1*
X4296355D2*
X4278105Y904936D1*
X4272068Y892722D1*
Y874613D1*
X4278105Y862399D1*
X4296355Y856363D1*
X4357141D1*
X4229532Y744288D2*
X4357141D1*
X4290318D2*
X4278105Y756361D1*
X4272068Y768574D1*
Y786824D1*
X4278105Y798897D1*
X4290318Y811111D1*
X4308568Y817147D1*
X4320642D1*
X4338892Y811110D1*
X4350965Y798897D1*
X4357142Y786824D1*
X4357141Y768574D1*
X4350965Y756361D1*
X4338891Y744288D1*
X3979532Y1041300D2*
X4107141D1*
Y998763D1*
X4100964Y980513D1*
X4088891Y968300D1*
X4076678Y962263D1*
X4058568Y956227D1*
X4028105D1*
X4009855Y962263D1*
X3997782Y968300D1*
X3985568Y980513D1*
X3979532Y998763D1*
Y1041300D1*
X4022068Y844151D2*
X4107141D1*
X4040318D2*
X4028105Y856224D1*
X4022068Y868438D1*
Y886548D1*
X4028105Y898761D1*
X4040318Y910834D1*
X4058568Y917011D1*
X4070641D1*
X4088891Y910834D1*
X4100965Y898761D1*
X4107141Y886547D1*
Y868438D1*
X4100965Y856224D1*
X4088891Y844151D1*
X3979532Y786686D2*
X4082855D1*
X4100965Y780649D1*
X4107141Y768436D1*
Y756363D1*
X4022068Y804936D2*
Y762399D1*
Y644288D2*
X4107141D1*
X4040318D2*
X4028105Y656361D1*
X4022068Y668574D1*
Y686684D1*
X4028105Y698897D1*
X4040318Y710970D1*
X4058568Y717147D1*
X4070642D1*
X4088892Y710970D1*
X4100965Y698897D1*
X4107142Y686684D1*
X4107141Y668574D1*
X4100965Y656361D1*
X4088891Y644288D1*
X3759855Y970010D2*
X3747782Y976046D1*
X3735568Y988260D1*
X3729532Y1000333D1*
Y1024619D1*
X3735568Y1036833D1*
X3747782Y1048906D1*
X3759855Y1055083D1*
X3778105Y1061119D1*
X3808568D1*
X3826678Y1055083D1*
X3838891Y1048906D1*
X3850964Y1036833D1*
X3857141Y1024619D1*
Y1000333D1*
X3850964Y988260D1*
X3838891Y976046D1*
X3826678Y970010D1*
X3729532Y930794D2*
X3857141D1*
X3772068Y861255D2*
X3778105Y873328D1*
X3790318Y885542D1*
X3808568Y891578D1*
X3820641D1*
X3838891Y885542D1*
X3850964Y873328D1*
X3857141Y861255D1*
Y843005D1*
X3850965Y830792D1*
X3838891Y818719D1*
X3820641Y812542D1*
X3808568D1*
X3790318Y818719D1*
X3778105Y830792D1*
X3772068Y843005D1*
Y861255D1*
X3790318Y700326D2*
X3778105Y712540D1*
X3772068Y724753D1*
Y742863D1*
X3778105Y755076D1*
X3790318Y767149D1*
X3808568Y773326D1*
X3820641D1*
X3838891Y767149D1*
X3850965Y755076D1*
X3857141Y742863D1*
Y724753D1*
X3850965Y712540D1*
X3838892Y700326D1*
X3729532Y661111D2*
X3857142Y661110D1*
X3772068Y600324D2*
X3832855Y661111D1*
X3808568Y636824D2*
X3857141Y594288D1*
M02*
