G04 DipTrace 3.3.1.3*
G04 crowbar-revA-Bottom.gbr*
%MOMM*%
G04 #@! TF.FileFunction,Copper,L2,Bot*
G04 #@! TF.Part,Single*
G04 #@! TA.AperFunction,Conductor*
%ADD14C,0.8*%
%ADD15C,0.6*%
G04 #@! TA.AperFunction,CopperBalancing*
%ADD17C,0.1*%
%ADD18C,0.4*%
G04 #@! TA.AperFunction,ComponentPad*
%ADD19C,2.4*%
%ADD20R,2.4X2.4*%
%ADD21C,4.0*%
%ADD22O,5.0X5.6*%
%ADD23C,2.0*%
%ADD24R,2.0X2.0*%
%ADD25O,2.0X1.2*%
%ADD26C,2.4*%
G04 #@! TA.AperFunction,ViaPad*
%ADD27C,1.6*%
%ADD50C,0.19608*%
%FSLAX35Y35*%
G04*
G71*
G90*
G75*
G01*
G04 Bottom*
%LPD*%
X2200000Y295000D2*
D14*
X735000D1*
X350000Y680000D1*
X4600000Y1650000D2*
D15*
X4250000D1*
X2600000Y804000D2*
D14*
X2254000Y1150000D1*
X520000D1*
X350000Y1320000D1*
D27*
X4600000Y1650000D3*
X4250000D3*
X500000Y200000D3*
X1100000Y800000D3*
X1900000Y400000D3*
X1700000Y200000D3*
X1400000D3*
X200000D3*
X800000D3*
X1100000D3*
X800000Y800000D3*
X1700000D3*
X1900000Y600000D3*
X1400000Y800000D3*
X800000Y1800000D3*
X1400000D3*
Y1200000D3*
X1100000Y1800000D3*
X1700000Y1200000D3*
X1900000Y1600000D3*
Y1400000D3*
X1700000Y1800000D3*
X800000Y1200000D3*
X1100000D3*
X706010Y1885333D2*
D17*
X1993990D1*
X706010Y1875667D2*
X1993990D1*
X706010Y1866000D2*
X1993990D1*
X706010Y1856333D2*
X1993990D1*
X706010Y1846667D2*
X1993990D1*
X706010Y1837000D2*
X1993990D1*
X706010Y1827333D2*
X1993990D1*
X706010Y1817667D2*
X1993990D1*
X706010Y1808000D2*
X1993990D1*
X705990Y1798333D2*
X1993990D1*
X696732Y1788667D2*
X1993990D1*
X687064Y1779000D2*
X1993990D1*
X677396Y1769333D2*
X1993990D1*
X667729Y1759667D2*
X1993990D1*
X658080Y1750000D2*
X1993990D1*
X648412Y1740333D2*
X1993990D1*
X638744Y1730667D2*
X1993990D1*
X629076Y1721000D2*
X1993990D1*
X619408Y1711333D2*
X1993990D1*
X609740Y1701667D2*
X1993990D1*
X600072Y1692000D2*
X1993990D1*
X590404Y1682333D2*
X1993990D1*
X580736Y1672667D2*
X1993990D1*
X571068Y1663000D2*
X1993990D1*
X561400Y1653333D2*
X1993990D1*
X551732Y1643667D2*
X1993990D1*
X542064Y1634000D2*
X1993990D1*
X532396Y1624333D2*
X1993990D1*
X522729Y1614667D2*
X1993990D1*
X513080Y1605000D2*
X1993990D1*
X503412Y1595333D2*
X1993990D1*
X106010Y1585667D2*
X1993990D1*
X106010Y1576000D2*
X1993990D1*
X106010Y1566333D2*
X1993990D1*
X106010Y1556667D2*
X1993990D1*
X106010Y1547000D2*
X1993990D1*
X106010Y1537333D2*
X1993990D1*
X106010Y1527667D2*
X1993990D1*
X106010Y1518000D2*
X1993990D1*
X106010Y1508333D2*
X1993990D1*
X106010Y1498667D2*
X1993990D1*
X106010Y1489000D2*
X1993990D1*
X106010Y1479333D2*
X1993990D1*
X106010Y1469667D2*
X1993990D1*
X106010Y1460000D2*
X1993990D1*
X106010Y1450333D2*
X1993990D1*
X106010Y1440667D2*
X1993990D1*
X106010Y1431000D2*
X1993990D1*
X106010Y1421333D2*
X1993990D1*
X106010Y1411667D2*
X1993990D1*
X106010Y1402000D2*
X1993990D1*
X106010Y1392333D2*
X1993990D1*
X106010Y1382667D2*
X1993990D1*
X106010Y1373000D2*
X1993990D1*
X106010Y1363333D2*
X1993990D1*
X106010Y1353667D2*
X1993990D1*
X106010Y1344000D2*
X1993990D1*
X106010Y1334333D2*
X1993990D1*
X106010Y1324667D2*
X1993990D1*
X106010Y1315000D2*
X1993990D1*
X106010Y1305333D2*
X1993990D1*
X106010Y1295667D2*
X1993990D1*
X106010Y1286000D2*
X1993990D1*
X106010Y1276333D2*
X1993990D1*
X106010Y1266667D2*
X1993990D1*
X106010Y1257000D2*
X1993990D1*
X106010Y1247333D2*
X1993990D1*
X106010Y1237667D2*
X1993990D1*
X106010Y1228000D2*
X1993990D1*
X106010Y1218333D2*
X1993990D1*
X106010Y1208667D2*
X1993990D1*
X106010Y1199000D2*
X1993990D1*
X106010Y1189333D2*
X1993990D1*
X106010Y1179667D2*
X1993990D1*
X106010Y1170000D2*
X1993990D1*
X106010Y1160333D2*
X1993990D1*
X106010Y1150667D2*
X1993990D1*
X106010Y1141000D2*
X1993990D1*
X106010Y1131333D2*
X1993990D1*
X106010Y1121667D2*
X1993990D1*
X106010Y1112000D2*
X1993990D1*
X106010Y1102333D2*
X1993990D1*
X106010Y1092667D2*
X1993990D1*
X106010Y1083000D2*
X1993990D1*
X106010Y1073333D2*
X1993990D1*
X106010Y1063667D2*
X1993990D1*
X105020Y1055000D2*
X1994980D1*
X1995000Y1894980D1*
X705020Y1895000D1*
X704939Y1799218D1*
X704455Y1797730D1*
X703536Y1796464D1*
X502939Y1595955D1*
X501545Y1595245D1*
X500000Y1595000D1*
X105020D1*
X105000Y1055020D1*
X106010Y935333D2*
X1993990D1*
X106010Y925667D2*
X1993990D1*
X106010Y916000D2*
X1993990D1*
X106010Y906333D2*
X1993990D1*
X106010Y896667D2*
X1993990D1*
X106010Y887000D2*
X1993990D1*
X106010Y877333D2*
X1993990D1*
X106010Y867667D2*
X1993990D1*
X106010Y858000D2*
X1993990D1*
X106010Y848333D2*
X1993990D1*
X106010Y838667D2*
X1993990D1*
X106010Y829000D2*
X1993990D1*
X106010Y819333D2*
X1993990D1*
X106010Y809667D2*
X1993990D1*
X106010Y800000D2*
X1993990D1*
X106010Y790333D2*
X1993990D1*
X106010Y780667D2*
X1993990D1*
X106010Y771000D2*
X1993990D1*
X106010Y761333D2*
X1993990D1*
X106010Y751667D2*
X1993990D1*
X106010Y742000D2*
X1993990D1*
X106010Y732333D2*
X1993990D1*
X106010Y722667D2*
X1993990D1*
X106010Y713000D2*
X1993990D1*
X106010Y703333D2*
X1993990D1*
X106010Y693667D2*
X1993990D1*
X106010Y684000D2*
X1993990D1*
X106010Y674333D2*
X1993990D1*
X106010Y664667D2*
X1993990D1*
X106010Y655000D2*
X1993990D1*
X106010Y645333D2*
X1993990D1*
X106010Y635667D2*
X1993990D1*
X106010Y626000D2*
X1993990D1*
X106010Y616333D2*
X1993990D1*
X106010Y606667D2*
X1993990D1*
X106010Y597000D2*
X1993990D1*
X106010Y587333D2*
X1993990D1*
X106010Y577667D2*
X1993990D1*
X106010Y568000D2*
X1993990D1*
X106010Y558333D2*
X1993990D1*
X106010Y548667D2*
X1993990D1*
X106010Y539000D2*
X1993990D1*
X106010Y529333D2*
X1993990D1*
X106010Y519667D2*
X1993990D1*
X106010Y510000D2*
X1993990D1*
X106010Y500333D2*
X1993990D1*
X106010Y490667D2*
X1993990D1*
X106010Y481000D2*
X1993990D1*
X106010Y471333D2*
X1993990D1*
X106010Y461667D2*
X1993990D1*
X106010Y452000D2*
X1993990D1*
X106010Y442333D2*
X1993990D1*
X106010Y432667D2*
X1993990D1*
X106010Y423000D2*
X1993990D1*
X106010Y413333D2*
X1993990D1*
X106010Y403667D2*
X1993990D1*
X106010Y394000D2*
X1993990D1*
X106010Y384333D2*
X1993990D1*
X106010Y374667D2*
X1993990D1*
X106010Y365000D2*
X1993990D1*
X106010Y355333D2*
X1993990D1*
X106010Y345667D2*
X1993990D1*
X106010Y336000D2*
X1993990D1*
X106010Y326333D2*
X1993990D1*
X106010Y316667D2*
X1993990D1*
X106010Y307000D2*
X1993990D1*
X106010Y297333D2*
X1993990D1*
X106010Y287667D2*
X1993990D1*
X106010Y278000D2*
X1993990D1*
X106010Y268333D2*
X1993990D1*
X106010Y258667D2*
X1993990D1*
X106010Y249000D2*
X1993990D1*
X106010Y239333D2*
X1993990D1*
X106010Y229667D2*
X1993990D1*
X106010Y220000D2*
X1993990D1*
X106010Y210333D2*
X1993990D1*
X106010Y200667D2*
X1993990D1*
X106010Y191000D2*
X1993990D1*
X106010Y181333D2*
X1993990D1*
X106010Y171667D2*
X1993990D1*
X106010Y162000D2*
X1993990D1*
X106010Y152333D2*
X1993990D1*
X106010Y142667D2*
X1993990D1*
X106010Y133000D2*
X1993990D1*
X106010Y123333D2*
X1993990D1*
X106010Y113667D2*
X1993990D1*
X1994980Y945000D2*
X105020D1*
X105000Y105020D1*
X1994980Y105000D1*
X1995000Y944980D1*
X2106010Y2385333D2*
X3552428D1*
X3777572D2*
X4822428D1*
X5047572D2*
X5287428D1*
X5512572D2*
X5593990D1*
X2106010Y2375667D2*
X3541627D1*
X3788373D2*
X4811627D1*
X5058373D2*
X5276627D1*
X5523373D2*
X5593990D1*
X2106010Y2366000D2*
X3532428D1*
X3797572D2*
X4802428D1*
X5067572D2*
X5267428D1*
X5532572D2*
X5593990D1*
X2106010Y2356333D2*
X3524498D1*
X3805502D2*
X4794498D1*
X5075502D2*
X5259498D1*
X5540502D2*
X5593990D1*
X2106010Y2346667D2*
X3517643D1*
X3812357D2*
X4787643D1*
X5082357D2*
X5252643D1*
X5547357D2*
X5593990D1*
X2106010Y2337000D2*
X3511705D1*
X3818295D2*
X4781705D1*
X5088295D2*
X5246705D1*
X5553295D2*
X5593990D1*
X2106010Y2327333D2*
X3506568D1*
X3823432D2*
X4776568D1*
X5093432D2*
X5241568D1*
X5558432D2*
X5593990D1*
X2106010Y2317667D2*
X3502174D1*
X3827826D2*
X4772174D1*
X5097826D2*
X5237174D1*
X5562826D2*
X5593990D1*
X2106010Y2308000D2*
X3498463D1*
X3831537D2*
X4768463D1*
X5101537D2*
X5233463D1*
X5566537D2*
X5593990D1*
X2106010Y2298333D2*
X3495396D1*
X3834604D2*
X4765396D1*
X5104604D2*
X5230396D1*
X5569604D2*
X5593990D1*
X2106010Y2288667D2*
X3492916D1*
X3837084D2*
X4762916D1*
X5107084D2*
X5227916D1*
X5572084D2*
X5593990D1*
X2106010Y2279000D2*
X3491021D1*
X3838979D2*
X4761021D1*
X5108979D2*
X5226021D1*
X5573979D2*
X5593990D1*
X2106010Y2269333D2*
X3489674D1*
X3840326D2*
X4759674D1*
X5110326D2*
X5224674D1*
X5575326D2*
X5593990D1*
X2106010Y2259667D2*
X3223092D1*
X3376928D2*
X3488873D1*
X3841127D2*
X4758873D1*
X5111127D2*
X5223873D1*
X5576127D2*
X5593990D1*
X2106010Y2250000D2*
X3201412D1*
X3398607D2*
X3488600D1*
X3841400D2*
X4758600D1*
X5111400D2*
X5223600D1*
X5576400D2*
X5593990D1*
X2106010Y2240333D2*
X3187193D1*
X3412826D2*
X3488873D1*
X3841127D2*
X4758873D1*
X5111127D2*
X5223873D1*
X5576127D2*
X5593990D1*
X2106010Y2230667D2*
X3176490D1*
X3423529D2*
X3489674D1*
X3840326D2*
X4759674D1*
X5110326D2*
X5224674D1*
X5575326D2*
X5593990D1*
X2106010Y2221000D2*
X3168033D1*
X3431986D2*
X3491021D1*
X3838979D2*
X4761021D1*
X5108979D2*
X5226021D1*
X5573979D2*
X5593990D1*
X2106010Y2211333D2*
X3161256D1*
X3438764D2*
X3492916D1*
X3837084D2*
X4762916D1*
X5107084D2*
X5227916D1*
X5572084D2*
X5593990D1*
X2106010Y2201667D2*
X3155826D1*
X3444193D2*
X3495396D1*
X3834604D2*
X4765396D1*
X5104604D2*
X5230396D1*
X5569604D2*
X5593990D1*
X2106010Y2192000D2*
X3151529D1*
X3448490D2*
X3498463D1*
X3831537D2*
X4768463D1*
X5101537D2*
X5233463D1*
X5566537D2*
X5593990D1*
X2106010Y2182333D2*
X3148229D1*
X3451791D2*
X3502174D1*
X3827826D2*
X4772174D1*
X5097826D2*
X5237174D1*
X5562826D2*
X5593990D1*
X2106010Y2172667D2*
X3145865D1*
X3454174D2*
X3506568D1*
X3823432D2*
X4776568D1*
X5093432D2*
X5241568D1*
X5558432D2*
X5593990D1*
X2106010Y2163000D2*
X3144342D1*
X3455678D2*
X3511705D1*
X3818295D2*
X4781705D1*
X5088295D2*
X5246705D1*
X5553295D2*
X5593990D1*
X2106010Y2153333D2*
X3143658D1*
X3456361D2*
X3517643D1*
X3812357D2*
X4787643D1*
X5082357D2*
X5252643D1*
X5547357D2*
X5593990D1*
X2106010Y2143667D2*
X3143795D1*
X3456244D2*
X3524498D1*
X3805502D2*
X4794498D1*
X5075502D2*
X5259498D1*
X5540502D2*
X5593990D1*
X2106010Y2134000D2*
X3077447D1*
X3455307D2*
X3532428D1*
X3797572D2*
X4802428D1*
X5067572D2*
X5267428D1*
X5532572D2*
X5593990D1*
X2106010Y2124333D2*
X3053795D1*
X3453529D2*
X3541627D1*
X3788373D2*
X4811627D1*
X5058373D2*
X5276627D1*
X5523373D2*
X5593990D1*
X2106010Y2114667D2*
X3038912D1*
X3450873D2*
X3552428D1*
X3777572D2*
X4822428D1*
X5047572D2*
X5287428D1*
X5512572D2*
X5593990D1*
X2106010Y2105000D2*
X3027818D1*
X3447279D2*
X3565299D1*
X3764701D2*
X4835299D1*
X5034701D2*
X5300299D1*
X5499701D2*
X5593990D1*
X2106010Y2095333D2*
X3019088D1*
X3442650D2*
X3581275D1*
X3748725D2*
X4851275D1*
X5018725D2*
X5316275D1*
X5483725D2*
X5593990D1*
X2106010Y2085667D2*
X3012115D1*
X3436811D2*
X3602682D1*
X3727318D2*
X4872682D1*
X4997318D2*
X5337682D1*
X5462318D2*
X5593990D1*
X2106010Y2076000D2*
X3006510D1*
X3429564D2*
X3641881D1*
X3688119D2*
X4911881D1*
X4958119D2*
X5376881D1*
X5423119D2*
X5593990D1*
X2106010Y2066333D2*
X3002057D1*
X3420502D2*
X3608346D1*
X3721654D2*
X4878346D1*
X4991654D2*
X5593990D1*
X2106010Y2056667D2*
X2998639D1*
X3408881D2*
X3585123D1*
X3744877D2*
X4855123D1*
X5014877D2*
X5593990D1*
X2106010Y2047000D2*
X2996139D1*
X3393061D2*
X3568307D1*
X3761693D2*
X4838307D1*
X5031693D2*
X5593990D1*
X2106010Y2037333D2*
X2994498D1*
X3365990D2*
X3554889D1*
X3775111D2*
X4824889D1*
X5045111D2*
X5593990D1*
X2106010Y2027667D2*
X2993717D1*
X3306322D2*
X3543717D1*
X3786283D2*
X4813717D1*
X5056283D2*
X5593990D1*
X2106010Y2018000D2*
X2993717D1*
X3306303D2*
X3534225D1*
X3795775D2*
X4804225D1*
X5065775D2*
X5593990D1*
X2106010Y2008333D2*
X2994557D1*
X3367436D2*
X3526061D1*
X3803939D2*
X4796061D1*
X5073939D2*
X5593990D1*
X2106010Y1998667D2*
X2996217D1*
X3393705D2*
X3518990D1*
X3811010D2*
X4788990D1*
X5081010D2*
X5593990D1*
X2106010Y1989000D2*
X2998736D1*
X3409330D2*
X3512857D1*
X3817143D2*
X4782857D1*
X5087143D2*
X5593990D1*
X2106010Y1979333D2*
X3002193D1*
X3420834D2*
X3507564D1*
X3822436D2*
X4777564D1*
X5092436D2*
X5593990D1*
X2106010Y1969667D2*
X3006686D1*
X3429838D2*
X3503033D1*
X3826967D2*
X4773033D1*
X5096967D2*
X5593990D1*
X2106010Y1960000D2*
X3012330D1*
X3437045D2*
X3499186D1*
X3830814D2*
X4769186D1*
X5100814D2*
X5593990D1*
X2106010Y1950333D2*
X3019361D1*
X3442826D2*
X3495982D1*
X3834018D2*
X4765982D1*
X5104018D2*
X5593990D1*
X2106010Y1940667D2*
X3028150D1*
X3447416D2*
X3493385D1*
X3836615D2*
X4763385D1*
X5106615D2*
X5593990D1*
X2106010Y1931000D2*
X3039342D1*
X3450971D2*
X3491354D1*
X3838646D2*
X4761354D1*
X5108646D2*
X5593990D1*
X2106010Y1921333D2*
X3054420D1*
X3453607D2*
X3489908D1*
X3840092D2*
X4759908D1*
X5110092D2*
X5593990D1*
X2106010Y1911667D2*
X3078639D1*
X3455346D2*
X3488990D1*
X3841010D2*
X4758990D1*
X5111010D2*
X5593990D1*
X2106010Y1902000D2*
X3143775D1*
X3456264D2*
X3488619D1*
X3841381D2*
X4758619D1*
X5111381D2*
X5593990D1*
X2106010Y1892333D2*
X3143678D1*
X3456361D2*
X3488775D1*
X3841225D2*
X4758775D1*
X5111225D2*
X5593990D1*
X2106010Y1882667D2*
X3144381D1*
X3455639D2*
X3489459D1*
X3840541D2*
X4759459D1*
X5110541D2*
X5593990D1*
X2106010Y1873000D2*
X3145924D1*
X3454096D2*
X3490689D1*
X3839311D2*
X4760689D1*
X5109311D2*
X5593990D1*
X2106010Y1863333D2*
X3148326D1*
X3451693D2*
X3492467D1*
X3837533D2*
X4762467D1*
X5107533D2*
X5593990D1*
X2106010Y1853667D2*
X3151666D1*
X3448373D2*
X3494830D1*
X3835170D2*
X4764830D1*
X5105170D2*
X5593990D1*
X2106010Y1844000D2*
X3156002D1*
X3444037D2*
X3497779D1*
X3832221D2*
X4767779D1*
X5102221D2*
X5593990D1*
X2106010Y1834333D2*
X3161471D1*
X3438549D2*
X3501354D1*
X3828646D2*
X4771354D1*
X5098646D2*
X5593990D1*
X2106010Y1824667D2*
X3168307D1*
X3431732D2*
X3505611D1*
X3824389D2*
X4775611D1*
X5094389D2*
X5593990D1*
X2106010Y1815000D2*
X3176822D1*
X3423217D2*
X3510572D1*
X3819428D2*
X4780572D1*
X5089428D2*
X5593990D1*
X2106010Y1805333D2*
X3187623D1*
X3412396D2*
X3516334D1*
X3813666D2*
X4786334D1*
X5083666D2*
X5593990D1*
X2106010Y1795667D2*
X3201998D1*
X3398021D2*
X3523014D1*
X3806986D2*
X4793014D1*
X5076986D2*
X5593990D1*
X2106010Y1786000D2*
X3224127D1*
X3375893D2*
X3530689D1*
X3799311D2*
X4800689D1*
X5069311D2*
X5593990D1*
X2106010Y1776333D2*
X3539615D1*
X3790385D2*
X4200279D1*
X4299721D2*
X4550279D1*
X4649721D2*
X4809615D1*
X5060385D2*
X5593990D1*
X2106010Y1766667D2*
X3550045D1*
X3779955D2*
X4180279D1*
X4319721D2*
X4530279D1*
X4669721D2*
X4820045D1*
X5049955D2*
X5593990D1*
X2106010Y1757000D2*
X3562428D1*
X3767572D2*
X4166021D1*
X4333979D2*
X4516021D1*
X4683979D2*
X4832428D1*
X5037572D2*
X5593990D1*
X2106010Y1747333D2*
X3577643D1*
X3752357D2*
X4154869D1*
X4345131D2*
X4504869D1*
X4695131D2*
X4847643D1*
X5022357D2*
X5594771D1*
X2106010Y1737667D2*
X2168150D1*
X2231850D2*
X3597564D1*
X3732436D2*
X4145807D1*
X4354193D2*
X4495807D1*
X4704193D2*
X4867564D1*
X5002436D2*
X6393990D1*
X2106010Y1728000D2*
X2134225D1*
X2265775D2*
X3629635D1*
X3700365D2*
X4138326D1*
X4711674D2*
X4899635D1*
X4970365D2*
X6393990D1*
X2106010Y1718333D2*
X2113824D1*
X2286166D2*
X4132115D1*
X4717885D2*
X6393990D1*
X2301615Y1708667D2*
X2974400D1*
X3025600D2*
X3374400D1*
X3425600D2*
X3759400D1*
X3810600D2*
X4126979D1*
X4723021D2*
X6393990D1*
X2314174Y1699000D2*
X2936803D1*
X3063197D2*
X3336803D1*
X3463197D2*
X3721803D1*
X3848197D2*
X4122779D1*
X4727221D2*
X6393990D1*
X2324721Y1689333D2*
X2915650D1*
X3084350D2*
X3315650D1*
X3484350D2*
X3700650D1*
X3869350D2*
X4119439D1*
X4730561D2*
X6393990D1*
X2333725Y1679667D2*
X2899811D1*
X3100189D2*
X3299811D1*
X3500189D2*
X3684811D1*
X3885189D2*
X4116881D1*
X4733119D2*
X6393990D1*
X2341498Y1670000D2*
X2887018D1*
X3112982D2*
X3287018D1*
X3512982D2*
X3672018D1*
X3897982D2*
X4115084D1*
X4734916D2*
X6393990D1*
X2348236Y1660333D2*
X2876295D1*
X3123705D2*
X3276295D1*
X3523705D2*
X3661295D1*
X3908705D2*
X4113990D1*
X4736010D2*
X6393990D1*
X2354057Y1650667D2*
X2867135D1*
X3132865D2*
X3267135D1*
X3532865D2*
X3652135D1*
X3917865D2*
X4113600D1*
X4736400D2*
X5937662D1*
X6062338D2*
X6393990D1*
X2359076Y1641000D2*
X2859244D1*
X3140756D2*
X3259244D1*
X3540756D2*
X3644244D1*
X3925756D2*
X4113893D1*
X4736107D2*
X5892154D1*
X6107846D2*
X6393990D1*
X2363373Y1631333D2*
X2852428D1*
X3147572D2*
X3252428D1*
X3547572D2*
X3637428D1*
X3932572D2*
X4114889D1*
X4735111D2*
X5861588D1*
X6138412D2*
X6393990D1*
X2366986Y1621667D2*
X2846510D1*
X3153490D2*
X3246510D1*
X3553490D2*
X3631510D1*
X3938490D2*
X4116588D1*
X4733412D2*
X5837271D1*
X6162729D2*
X6393990D1*
X2369994Y1612000D2*
X2841412D1*
X3158588D2*
X3241412D1*
X3558588D2*
X3626412D1*
X3943588D2*
X4119049D1*
X4730951D2*
X4968346D1*
X5131674D2*
X5816646D1*
X6183354D2*
X6393990D1*
X2372377Y1602333D2*
X2837037D1*
X3162963D2*
X3237037D1*
X3562963D2*
X3622037D1*
X3947963D2*
X4122271D1*
X4727729D2*
X4948619D1*
X5151400D2*
X5798619D1*
X6201381D2*
X6393990D1*
X2374213Y1592667D2*
X2833346D1*
X3166654D2*
X3233346D1*
X3566654D2*
X3618346D1*
X3951654D2*
X4126334D1*
X4723666D2*
X4935162D1*
X5164877D2*
X5782486D1*
X6217514D2*
X6393990D1*
X2375482Y1583000D2*
X2830299D1*
X3169701D2*
X3230299D1*
X3569701D2*
X3615299D1*
X3954701D2*
X4131334D1*
X4718666D2*
X4924889D1*
X5175131D2*
X5767896D1*
X6232104D2*
X6393990D1*
X2376205Y1573333D2*
X2827838D1*
X3172162D2*
X3227838D1*
X3572162D2*
X3612838D1*
X3957162D2*
X4137389D1*
X4712611D2*
X4916764D1*
X5183256D2*
X5754557D1*
X6245443D2*
X6393990D1*
X2376400Y1563667D2*
X2825963D1*
X3174037D2*
X3225963D1*
X3574037D2*
X3610963D1*
X3959037D2*
X4144693D1*
X4355307D2*
X4494693D1*
X4705307D2*
X4910240D1*
X5189799D2*
X5742271D1*
X6257729D2*
X6393990D1*
X2376049Y1554000D2*
X2824635D1*
X3175365D2*
X3224635D1*
X3575365D2*
X3609635D1*
X3960365D2*
X4153521D1*
X4346479D2*
X4503521D1*
X4696479D2*
X4905006D1*
X5195014D2*
X5730904D1*
X6269096D2*
X6393990D1*
X2375170Y1544333D2*
X2823854D1*
X3176146D2*
X3223854D1*
X3576146D2*
X3608854D1*
X3961146D2*
X4164342D1*
X4335658D2*
X4514342D1*
X4685658D2*
X4900885D1*
X5199135D2*
X5720318D1*
X6279682D2*
X6393990D1*
X2373764Y1534667D2*
X2823600D1*
X3176400D2*
X3223600D1*
X3576400D2*
X3608600D1*
X3961400D2*
X4178072D1*
X4321928D2*
X4528072D1*
X4671928D2*
X4897760D1*
X5202260D2*
X5710455D1*
X6289545D2*
X6393990D1*
X2371771Y1525000D2*
X2823893D1*
X3176107D2*
X3223893D1*
X3576107D2*
X3608893D1*
X3961107D2*
X4196959D1*
X4303041D2*
X4546959D1*
X4653041D2*
X4895533D1*
X5204486D2*
X5701217D1*
X6298783D2*
X6393990D1*
X2369213Y1515333D2*
X2824713D1*
X3175287D2*
X3224713D1*
X3575287D2*
X3609713D1*
X3960287D2*
X4234928D1*
X4265072D2*
X4584928D1*
X4615072D2*
X4894166D1*
X5205854D2*
X5692584D1*
X6307416D2*
X6393990D1*
X2366068Y1505667D2*
X2826061D1*
X3173939D2*
X3226061D1*
X3573939D2*
X3611061D1*
X3958939D2*
X4893619D1*
X5206400D2*
X5684479D1*
X6315521D2*
X6393990D1*
X2362260Y1496000D2*
X2827994D1*
X3172006D2*
X3227994D1*
X3572006D2*
X3612994D1*
X3957006D2*
X4893893D1*
X5206127D2*
X5676861D1*
X6323139D2*
X6393990D1*
X2357768Y1486333D2*
X2830494D1*
X3169506D2*
X3230494D1*
X3569506D2*
X3615494D1*
X3954506D2*
X4822096D1*
X5205053D2*
X5669693D1*
X6330307D2*
X6393990D1*
X2352533Y1476667D2*
X2833580D1*
X3166420D2*
X3233580D1*
X3566420D2*
X3618580D1*
X3951420D2*
X4800846D1*
X5203139D2*
X5662975D1*
X6337025D2*
X6393990D1*
X2346479Y1467000D2*
X2837311D1*
X3162689D2*
X3237311D1*
X3562689D2*
X3622311D1*
X3947689D2*
X4786783D1*
X5200326D2*
X5656646D1*
X6343354D2*
X6393990D1*
X2339467Y1457333D2*
X2841725D1*
X3158275D2*
X3241725D1*
X3558275D2*
X3626725D1*
X3943275D2*
X4776158D1*
X5196557D2*
X5650709D1*
X6349291D2*
X6393990D1*
X2331381Y1447667D2*
X2846881D1*
X3153119D2*
X3246881D1*
X3553119D2*
X3631881D1*
X3938119D2*
X4767779D1*
X5191732D2*
X5645123D1*
X6354877D2*
X6393990D1*
X2321986Y1438000D2*
X2852857D1*
X3147143D2*
X3252857D1*
X3547143D2*
X3637857D1*
X3932143D2*
X4761061D1*
X5185678D2*
X5639908D1*
X6360092D2*
X6393990D1*
X2310951Y1428333D2*
X2859752D1*
X3140248D2*
X3259752D1*
X3540248D2*
X3644752D1*
X3925248D2*
X4755650D1*
X5178139D2*
X5635006D1*
X6364994D2*
X6393990D1*
X2297709Y1418667D2*
X2867721D1*
X3132279D2*
X3267721D1*
X3532279D2*
X3652721D1*
X3917279D2*
X4751393D1*
X5168705D2*
X5630436D1*
X6369564D2*
X6393990D1*
X2106010Y1409000D2*
X2118814D1*
X2281186D2*
X2876979D1*
X3123021D2*
X3276979D1*
X3523021D2*
X3661979D1*
X3908021D2*
X4748131D1*
X5156537D2*
X5626158D1*
X6373842D2*
X6393990D1*
X2106010Y1399333D2*
X2141393D1*
X2258607D2*
X2887818D1*
X3112182D2*
X3287818D1*
X3512182D2*
X3672818D1*
X3897182D2*
X4745787D1*
X5139623D2*
X5622174D1*
X6377826D2*
X6393990D1*
X2106010Y1389667D2*
X2194166D1*
X2205827D2*
X2900807D1*
X3099193D2*
X3300807D1*
X3499193D2*
X3685807D1*
X3884193D2*
X4744303D1*
X5106674D2*
X5618482D1*
X6381518D2*
X6393990D1*
X2106010Y1380000D2*
X2916900D1*
X3083100D2*
X3316900D1*
X3483100D2*
X3701900D1*
X3868100D2*
X4743658D1*
X5056381D2*
X5615084D1*
X6384916D2*
X6393990D1*
X2106010Y1370333D2*
X2938580D1*
X3061420D2*
X3338580D1*
X3461420D2*
X3723580D1*
X3846420D2*
X4743814D1*
X5056225D2*
X5611939D1*
X6388061D2*
X6393984D1*
X2106010Y1360667D2*
X2979693D1*
X3020307D2*
X3379693D1*
X3420307D2*
X3764693D1*
X3805307D2*
X4744771D1*
X5123725D2*
X5609068D1*
X6390932D2*
X6393990D1*
X2106010Y1351000D2*
X4746588D1*
X5146830D2*
X5606451D1*
X2106010Y1341333D2*
X4749264D1*
X5161557D2*
X5604088D1*
X2106010Y1331667D2*
X4752896D1*
X5172553D2*
X5601979D1*
X2106010Y1322000D2*
X4757564D1*
X5181205D2*
X5600104D1*
X2106010Y1312333D2*
X4763443D1*
X5188139D2*
X5598482D1*
X2106010Y1302667D2*
X4770748D1*
X5193686D2*
X5597096D1*
X2106010Y1293000D2*
X4779889D1*
X5198100D2*
X5595963D1*
X2106010Y1283333D2*
X4791607D1*
X5201498D2*
X5595045D1*
X2106010Y1273667D2*
X4807643D1*
X5203959D2*
X5594361D1*
X2106010Y1264000D2*
X4835592D1*
X5205561D2*
X5593912D1*
X2106010Y1254333D2*
X4893697D1*
X5206342D2*
X5593697D1*
X2266811Y1244667D2*
X4893736D1*
X5206283D2*
X5593697D1*
X2298314Y1235000D2*
X4894596D1*
X5205443D2*
X5593951D1*
X2313529Y1225333D2*
X4896275D1*
X5203744D2*
X5594420D1*
X2324252Y1215667D2*
X4898834D1*
X5201186D2*
X5595123D1*
X2333920Y1206000D2*
X4902330D1*
X5197689D2*
X5596061D1*
X2343588Y1196333D2*
X4906861D1*
X5193178D2*
X5597232D1*
X2353256Y1186667D2*
X4912545D1*
X5187475D2*
X5598639D1*
X2362924Y1177000D2*
X4919635D1*
X5180385D2*
X5600299D1*
X2372592Y1167333D2*
X4928502D1*
X5171537D2*
X5602193D1*
X2382240Y1157667D2*
X4939791D1*
X5160229D2*
X5604322D1*
X2391908Y1148000D2*
X4955045D1*
X5144994D2*
X5348600D1*
X5451400D2*
X5606705D1*
X2401576Y1138333D2*
X4979889D1*
X5120131D2*
X5323521D1*
X5476479D2*
X5609361D1*
X6390639D2*
X6393990D1*
X2411244Y1128667D2*
X5305924D1*
X5494076D2*
X5612252D1*
X6387748D2*
X6393984D1*
X2420912Y1119000D2*
X5292018D1*
X5507982D2*
X5615416D1*
X6384584D2*
X6393990D1*
X2430580Y1109333D2*
X5280514D1*
X5519486D2*
X5618854D1*
X6381146D2*
X6393990D1*
X2440248Y1099667D2*
X5270768D1*
X5529232D2*
X5622584D1*
X6377416D2*
X6393990D1*
X2449916Y1090000D2*
X5262389D1*
X5537611D2*
X5626588D1*
X6373412D2*
X6393990D1*
X2459584Y1080333D2*
X5255123D1*
X5544877D2*
X5630885D1*
X6369115D2*
X6393990D1*
X2469252Y1070667D2*
X5248854D1*
X5551146D2*
X5635494D1*
X6364506D2*
X6393990D1*
X2478920Y1061000D2*
X5243424D1*
X5556576D2*
X5640436D1*
X6359564D2*
X6393990D1*
X2106010Y1051333D2*
X2216744D1*
X2488588D2*
X5238756D1*
X5561244D2*
X5645689D1*
X6354311D2*
X6393990D1*
X2106010Y1041667D2*
X2226412D1*
X2498256D2*
X5234791D1*
X5565209D2*
X5651295D1*
X6348705D2*
X6393990D1*
X2106010Y1032000D2*
X2236080D1*
X2507924D2*
X5231490D1*
X5568510D2*
X5657291D1*
X6342709D2*
X6393990D1*
X2106010Y1022333D2*
X2245748D1*
X2517592D2*
X5228795D1*
X5571205D2*
X5663639D1*
X6336361D2*
X6393990D1*
X2106010Y1012667D2*
X2255416D1*
X2527240D2*
X5226666D1*
X5573334D2*
X5670416D1*
X6329584D2*
X6393990D1*
X2106010Y1003000D2*
X2265084D1*
X2536908D2*
X5225123D1*
X5574877D2*
X5677623D1*
X6322377D2*
X6393990D1*
X2106010Y993333D2*
X2274752D1*
X2546576D2*
X5224107D1*
X5575893D2*
X5685279D1*
X6314721D2*
X6393990D1*
X2106010Y983667D2*
X2284420D1*
X2556244D2*
X5223639D1*
X5576361D2*
X5693443D1*
X6306557D2*
X6393990D1*
X2106010Y974000D2*
X2294088D1*
X2776400D2*
X4873600D1*
X5576303D2*
X5702154D1*
X6297846D2*
X6393990D1*
X2106010Y964333D2*
X2303756D1*
X2776400D2*
X4873600D1*
X5575697D2*
X5711451D1*
X6288549D2*
X6393990D1*
X2106010Y954667D2*
X2313424D1*
X2776400D2*
X4873600D1*
X5574564D2*
X5721373D1*
X6278627D2*
X6393990D1*
X2106010Y945000D2*
X2323092D1*
X2776400D2*
X4246607D1*
X4599408D2*
X4873600D1*
X5572865D2*
X5732037D1*
X6267963D2*
X6393990D1*
X2106010Y935333D2*
X2332760D1*
X2776400D2*
X4246607D1*
X4599408D2*
X4873600D1*
X5570619D2*
X5743502D1*
X6256498D2*
X6393990D1*
X2106010Y925667D2*
X2342408D1*
X2776400D2*
X4246607D1*
X4599408D2*
X4873600D1*
X5226400D2*
X5232219D1*
X5567768D2*
X5755885D1*
X6244115D2*
X6393990D1*
X2106010Y916000D2*
X2352076D1*
X2776400D2*
X4246607D1*
X4599408D2*
X4873600D1*
X5226400D2*
X5235689D1*
X5564311D2*
X5769342D1*
X6230658D2*
X6393990D1*
X2106010Y906333D2*
X2361744D1*
X2776400D2*
X4246607D1*
X4599408D2*
X4873600D1*
X5226400D2*
X5239811D1*
X5560189D2*
X5784088D1*
X6215912D2*
X6393990D1*
X2106010Y896667D2*
X2371412D1*
X2776400D2*
X4246607D1*
X4599408D2*
X4873600D1*
X5226400D2*
X5244654D1*
X5555346D2*
X5800377D1*
X6199623D2*
X6393990D1*
X2106010Y887000D2*
X2381080D1*
X2776400D2*
X4246607D1*
X4599408D2*
X4873600D1*
X5226400D2*
X5250279D1*
X5549721D2*
X5818658D1*
X6181342D2*
X6393990D1*
X2106010Y877333D2*
X2390748D1*
X2776400D2*
X4246607D1*
X4599408D2*
X4873600D1*
X5226400D2*
X5256783D1*
X5543217D2*
X5839576D1*
X6160424D2*
X6393990D1*
X2106010Y867667D2*
X2400416D1*
X2776400D2*
X4246607D1*
X4599408D2*
X4873600D1*
X5226400D2*
X5264283D1*
X5535717D2*
X5864400D1*
X6135600D2*
X6393990D1*
X2106010Y858000D2*
X2410084D1*
X2776400D2*
X4246607D1*
X4599408D2*
X4873600D1*
X5226400D2*
X5272975D1*
X5527025D2*
X5895885D1*
X6104115D2*
X6393990D1*
X2106010Y848333D2*
X2419752D1*
X2776400D2*
X4246607D1*
X4599408D2*
X4873600D1*
X5226400D2*
X5283111D1*
X5516889D2*
X5944596D1*
X6055404D2*
X6393990D1*
X2106010Y838667D2*
X2423600D1*
X2776400D2*
X4246607D1*
X4599408D2*
X4873600D1*
X5226400D2*
X5295123D1*
X5504877D2*
X6393990D1*
X2106010Y829000D2*
X2423600D1*
X2776400D2*
X4246607D1*
X4599408D2*
X4873600D1*
X5226400D2*
X5309752D1*
X5490248D2*
X6393990D1*
X2106010Y819333D2*
X2423600D1*
X2776400D2*
X4246607D1*
X4599408D2*
X4873600D1*
X5226400D2*
X5328639D1*
X5471361D2*
X6393990D1*
X2106010Y809667D2*
X2423600D1*
X2776400D2*
X4246607D1*
X4599408D2*
X4873600D1*
X5226400D2*
X5357154D1*
X5442846D2*
X6393990D1*
X2106010Y800000D2*
X2423600D1*
X2776400D2*
X4246607D1*
X4599408D2*
X4873600D1*
X5226400D2*
X6393990D1*
X2106010Y790333D2*
X2423600D1*
X2776400D2*
X4246607D1*
X4599408D2*
X4873600D1*
X5226400D2*
X6393990D1*
X2106010Y780667D2*
X2423600D1*
X2776400D2*
X4246607D1*
X4599408D2*
X4873600D1*
X5226400D2*
X6393990D1*
X2106010Y771000D2*
X2423600D1*
X2776400D2*
X4246607D1*
X4599408D2*
X4873600D1*
X5226400D2*
X6393990D1*
X2106010Y761333D2*
X2423600D1*
X2776400D2*
X4246607D1*
X4599408D2*
X4873600D1*
X5226400D2*
X6393990D1*
X2106010Y751667D2*
X2423600D1*
X2776400D2*
X4246607D1*
X4599408D2*
X4873600D1*
X5226400D2*
X6393990D1*
X2106010Y742000D2*
X2423600D1*
X2776400D2*
X4246607D1*
X4599408D2*
X4873600D1*
X5226400D2*
X6393990D1*
X2106010Y732333D2*
X2423600D1*
X2776400D2*
X4246607D1*
X4599408D2*
X4873600D1*
X5226400D2*
X6393990D1*
X2106010Y722667D2*
X2423600D1*
X2776400D2*
X4246607D1*
X4599408D2*
X4873600D1*
X5226400D2*
X6393990D1*
X2106010Y713000D2*
X2423600D1*
X2776400D2*
X4246607D1*
X4599408D2*
X4873600D1*
X5226400D2*
X6393990D1*
X2106010Y703333D2*
X2423600D1*
X2776400D2*
X4246607D1*
X4599408D2*
X4873600D1*
X5226400D2*
X5973736D1*
X6026264D2*
X6393990D1*
X2106010Y693667D2*
X2423600D1*
X2776400D2*
X4246607D1*
X4599408D2*
X4651393D1*
X4702592D2*
X4873600D1*
X5226400D2*
X5939771D1*
X6060229D2*
X6393990D1*
X2106010Y684000D2*
X2423600D1*
X2776400D2*
X4246607D1*
X4599408D2*
X4613795D1*
X4740209D2*
X4873600D1*
X5226400D2*
X5920299D1*
X6079701D2*
X6393990D1*
X2106010Y674333D2*
X2423600D1*
X2776400D2*
X4246607D1*
X4761342D2*
X4873600D1*
X5226400D2*
X5905787D1*
X6094213D2*
X6393990D1*
X2106010Y664667D2*
X2423600D1*
X2776400D2*
X4246607D1*
X4777182D2*
X4873600D1*
X5226400D2*
X5894107D1*
X6105893D2*
X6393990D1*
X2106010Y655000D2*
X2423600D1*
X2776400D2*
X4246607D1*
X4789975D2*
X4873600D1*
X5226400D2*
X5884439D1*
X6115561D2*
X6393990D1*
X2106010Y645333D2*
X2423600D1*
X2776400D2*
X4246607D1*
X4800697D2*
X4873600D1*
X5226400D2*
X5876275D1*
X6123725D2*
X6393990D1*
X2106010Y635667D2*
X2423600D1*
X2776400D2*
X4246607D1*
X4809857D2*
X4873600D1*
X5226400D2*
X5869342D1*
X6130658D2*
X6393990D1*
X2106010Y626000D2*
X4246607D1*
X4817748D2*
X5863443D1*
X6136557D2*
X6393990D1*
X2106010Y616333D2*
X4246607D1*
X4824584D2*
X5858463D1*
X6141537D2*
X6393990D1*
X2106010Y606667D2*
X4246607D1*
X4830502D2*
X5854303D1*
X6145697D2*
X6393990D1*
X2106010Y597000D2*
X4518404D1*
X4835600D2*
X5850885D1*
X6149115D2*
X6393990D1*
X2106010Y587333D2*
X4514029D1*
X4839955D2*
X5848150D1*
X6151850D2*
X6393990D1*
X2106010Y577667D2*
X4510357D1*
X4843646D2*
X5846080D1*
X6153920D2*
X6393990D1*
X2106010Y568000D2*
X4507291D1*
X4846713D2*
X5844654D1*
X6155346D2*
X6393990D1*
X2106010Y558333D2*
X4504850D1*
X4849154D2*
X5843814D1*
X6156186D2*
X6393990D1*
X2106010Y548667D2*
X4502955D1*
X4851049D2*
X5843600D1*
X6156400D2*
X6393990D1*
X2106010Y539000D2*
X4501627D1*
X4852377D2*
X5843990D1*
X6156010D2*
X6393990D1*
X2106010Y529333D2*
X4500846D1*
X4853158D2*
X5844986D1*
X6155014D2*
X6393990D1*
X2106010Y519667D2*
X4500592D1*
X4853393D2*
X5846588D1*
X6153412D2*
X6393990D1*
X2106010Y510000D2*
X4500885D1*
X4853119D2*
X5848834D1*
X6151166D2*
X6393990D1*
X2106010Y500333D2*
X4501705D1*
X4852299D2*
X5851744D1*
X6148256D2*
X6393990D1*
X2106010Y490667D2*
X4503072D1*
X4850932D2*
X5855377D1*
X6144623D2*
X6393990D1*
X2106010Y481000D2*
X4504986D1*
X4849018D2*
X5859752D1*
X6140248D2*
X6393990D1*
X2106010Y471333D2*
X2594166D1*
X2605827D2*
X4507486D1*
X4846518D2*
X5011451D1*
X5088549D2*
X5864986D1*
X6135014D2*
X6393990D1*
X2106010Y461667D2*
X2144342D1*
X2255658D2*
X2541393D1*
X2658607D2*
X4510592D1*
X4843412D2*
X4980963D1*
X5119037D2*
X5871139D1*
X6128861D2*
X6393990D1*
X2106010Y452000D2*
X2120787D1*
X2279213D2*
X2518814D1*
X2681186D2*
X4514322D1*
X4839682D2*
X4961471D1*
X5138529D2*
X5878404D1*
X6121596D2*
X6393990D1*
X2296166Y442333D2*
X2502291D1*
X2697709D2*
X4518736D1*
X4835268D2*
X4946490D1*
X5153510D2*
X5843600D1*
X6156400D2*
X6393990D1*
X2309682Y432667D2*
X2489049D1*
X2710951D2*
X2947486D1*
X3052514D2*
X3347486D1*
X3452514D2*
X3732486D1*
X3837514D2*
X4367350D1*
X4478666D2*
X4523893D1*
X4830111D2*
X4934264D1*
X5165736D2*
X5843600D1*
X6156400D2*
X6393990D1*
X2320912Y423000D2*
X2478014D1*
X2721986D2*
X2922838D1*
X3077162D2*
X3322838D1*
X3477162D2*
X3707838D1*
X3862162D2*
X4343795D1*
X4502201D2*
X4529869D1*
X4824135D2*
X4923951D1*
X5176049D2*
X5843600D1*
X6156400D2*
X6393990D1*
X2330463Y413333D2*
X2468619D1*
X2731381D2*
X2905396D1*
X3094604D2*
X3305396D1*
X3494604D2*
X3690396D1*
X3879604D2*
X4326822D1*
X4519174D2*
X4536764D1*
X4817240D2*
X4915123D1*
X5184877D2*
X5843600D1*
X6156400D2*
X6393990D1*
X2338686Y403667D2*
X2460533D1*
X2739467D2*
X2891588D1*
X3108412D2*
X3291588D1*
X3508412D2*
X3676588D1*
X3893412D2*
X4313307D1*
X4532689D2*
X4544732D1*
X4809271D2*
X4907506D1*
X5192494D2*
X5843600D1*
X6156400D2*
X6393990D1*
X2345795Y394000D2*
X2453521D1*
X2746479D2*
X2880162D1*
X3119838D2*
X3280162D1*
X3519838D2*
X3665162D1*
X3904838D2*
X4302076D1*
X4543920D2*
X4553971D1*
X4800014D2*
X4900924D1*
X5199076D2*
X5843600D1*
X6156400D2*
X6393990D1*
X2351947Y384333D2*
X2447467D1*
X2752533D2*
X2870455D1*
X3129545D2*
X3270455D1*
X3529545D2*
X3655455D1*
X3914545D2*
X4292525D1*
X4553471D2*
X4564830D1*
X4789174D2*
X4895201D1*
X5204799D2*
X5843600D1*
X6156400D2*
X6393990D1*
X2357260Y374667D2*
X2442232D1*
X2757768D2*
X2862115D1*
X3137885D2*
X3262115D1*
X3537885D2*
X3647115D1*
X3922885D2*
X4284322D1*
X4561674D2*
X4577799D1*
X4776205D2*
X4890279D1*
X5209721D2*
X5843600D1*
X6156400D2*
X6393990D1*
X2361830Y365000D2*
X2437740D1*
X2762260D2*
X2854908D1*
X3145092D2*
X3254908D1*
X3545092D2*
X3639908D1*
X3930092D2*
X4277213D1*
X4568783D2*
X4593893D1*
X4760092D2*
X4886080D1*
X5213920D2*
X5843600D1*
X6156400D2*
X6393990D1*
X2365697Y355333D2*
X2433932D1*
X2766068D2*
X2848658D1*
X3151342D2*
X3248658D1*
X3551342D2*
X3633658D1*
X3936342D2*
X4271061D1*
X4574955D2*
X4615592D1*
X4738412D2*
X4882564D1*
X5217436D2*
X5843600D1*
X6156400D2*
X6393990D1*
X2368920Y345667D2*
X2430787D1*
X2769213D2*
X2843248D1*
X3156752D2*
X3243248D1*
X3556752D2*
X3628248D1*
X3941752D2*
X4265729D1*
X4580268D2*
X4656686D1*
X4697318D2*
X4879654D1*
X5220346D2*
X5843600D1*
X6156400D2*
X6393990D1*
X2371537Y336000D2*
X2428229D1*
X2771771D2*
X2838619D1*
X3161381D2*
X3238619D1*
X3561381D2*
X3623619D1*
X3946381D2*
X4261178D1*
X4584818D2*
X4877330D1*
X5222670D2*
X5843600D1*
X6156400D2*
X6393990D1*
X2373588Y326333D2*
X2426236D1*
X2773764D2*
X2834674D1*
X3165326D2*
X3234674D1*
X3565326D2*
X3619674D1*
X3950326D2*
X4257311D1*
X4588705D2*
X4875592D1*
X5224408D2*
X5843600D1*
X6156400D2*
X6393990D1*
X2375053Y316667D2*
X2424830D1*
X2775170D2*
X2831373D1*
X3168627D2*
X3231373D1*
X3568627D2*
X3616373D1*
X3953627D2*
X4254068D1*
X4591928D2*
X4874400D1*
X5225600D2*
X5843600D1*
X6156400D2*
X6393990D1*
X2375990Y307000D2*
X2423951D1*
X2776049D2*
X2828697D1*
X3171303D2*
X3228697D1*
X3571303D2*
X3613697D1*
X3956303D2*
X4251451D1*
X4594545D2*
X4873736D1*
X5226264D2*
X5843600D1*
X6156400D2*
X6393990D1*
X2376381Y297333D2*
X2423600D1*
X2776400D2*
X2826607D1*
X3173393D2*
X3226607D1*
X3573393D2*
X3611607D1*
X3958393D2*
X4249420D1*
X4596576D2*
X4873619D1*
X5226381D2*
X5843600D1*
X6156400D2*
X6393990D1*
X2376244Y287667D2*
X2423795D1*
X2776205D2*
X2825064D1*
X3174936D2*
X3225064D1*
X3574936D2*
X3610064D1*
X3959936D2*
X4247936D1*
X4598061D2*
X4874029D1*
X5225971D2*
X5843600D1*
X6156400D2*
X6393990D1*
X2375580Y278000D2*
X2424518D1*
X2775482D2*
X2824088D1*
X3175912D2*
X3224088D1*
X3575912D2*
X3609088D1*
X3960912D2*
X4247018D1*
X4598998D2*
X4874986D1*
X5225014D2*
X5843600D1*
X6156400D2*
X6393990D1*
X2374369Y268333D2*
X2425787D1*
X2774213D2*
X2823639D1*
X3176361D2*
X3223639D1*
X3576361D2*
X3608639D1*
X3961361D2*
X4246607D1*
X4599389D2*
X4876490D1*
X5223510D2*
X5843600D1*
X6156400D2*
X6393990D1*
X2372592Y258667D2*
X2427623D1*
X2772377D2*
X2823717D1*
X3176283D2*
X3223717D1*
X3576283D2*
X3608717D1*
X3961283D2*
X4246744D1*
X4599252D2*
X4878541D1*
X5221459D2*
X5843600D1*
X6156400D2*
X6393990D1*
X2370268Y249000D2*
X2430006D1*
X2769994D2*
X2824322D1*
X3175678D2*
X3224322D1*
X3575678D2*
X3609322D1*
X3960678D2*
X4247428D1*
X4598568D2*
X4881178D1*
X5218822D2*
X5843600D1*
X6156400D2*
X6393990D1*
X2367338Y239333D2*
X2433014D1*
X2766986D2*
X2825494D1*
X3174506D2*
X3225494D1*
X3574506D2*
X3610494D1*
X3959506D2*
X4248639D1*
X4597357D2*
X4884420D1*
X5215580D2*
X5843600D1*
X6156400D2*
X6393990D1*
X2363783Y229667D2*
X2436627D1*
X2763373D2*
X2827193D1*
X3172807D2*
X3227193D1*
X3572807D2*
X3612193D1*
X3957807D2*
X4250396D1*
X4595600D2*
X4888326D1*
X5211674D2*
X5843600D1*
X6156400D2*
X6393990D1*
X2359564Y220000D2*
X2440924D1*
X2759076D2*
X2829479D1*
X3170521D2*
X3229479D1*
X3570521D2*
X3614479D1*
X3955521D2*
X4252740D1*
X4593256D2*
X4892916D1*
X5207084D2*
X5843600D1*
X6156400D2*
X6393990D1*
X2354604Y210333D2*
X2445943D1*
X2754057D2*
X2832330D1*
X3167670D2*
X3232330D1*
X3567670D2*
X3617330D1*
X3952670D2*
X4255670D1*
X4590326D2*
X4898248D1*
X5201752D2*
X5843600D1*
X6156400D2*
X6393990D1*
X2348881Y200667D2*
X2451764D1*
X2748236D2*
X2835826D1*
X3164174D2*
X3235826D1*
X3564174D2*
X3620826D1*
X3949174D2*
X4259225D1*
X4586771D2*
X4904439D1*
X5195561D2*
X5843600D1*
X6156400D2*
X6393990D1*
X2342240Y191000D2*
X2458502D1*
X2741498D2*
X2839967D1*
X3160033D2*
X3239967D1*
X3560033D2*
X3624967D1*
X3945033D2*
X4263443D1*
X4582553D2*
X4911588D1*
X5188412D2*
X5843600D1*
X6156400D2*
X6393990D1*
X2334584Y181333D2*
X2466275D1*
X2733725D2*
X2844850D1*
X3155150D2*
X3244850D1*
X3555150D2*
X3629850D1*
X3940150D2*
X4268385D1*
X4577611D2*
X4919830D1*
X5180170D2*
X5843600D1*
X6156400D2*
X6393990D1*
X2325717Y171667D2*
X2475279D1*
X2724721D2*
X2850494D1*
X3149506D2*
X3250494D1*
X3549506D2*
X3635494D1*
X3934506D2*
X4274127D1*
X4571869D2*
X4929439D1*
X5170561D2*
X5843600D1*
X6156400D2*
X6393990D1*
X2315346Y162000D2*
X2485826D1*
X2714174D2*
X2857037D1*
X3142963D2*
X3257037D1*
X3542963D2*
X3642037D1*
X3927963D2*
X4280768D1*
X4565248D2*
X4940729D1*
X5159271D2*
X5843600D1*
X6156400D2*
X6393990D1*
X2303041Y152333D2*
X2498385D1*
X2701615D2*
X2864576D1*
X3135424D2*
X3264576D1*
X3535424D2*
X3649576D1*
X3920424D2*
X4288424D1*
X4557592D2*
X4954342D1*
X5145658D2*
X5843600D1*
X6156400D2*
X6393990D1*
X2106010Y142667D2*
X2112068D1*
X2287943D2*
X2513834D1*
X2686166D2*
X2873307D1*
X3126693D2*
X3273307D1*
X3526693D2*
X3658307D1*
X3911693D2*
X4297291D1*
X4548725D2*
X4971471D1*
X5128529D2*
X5843600D1*
X6156400D2*
X6393990D1*
X2106010Y133000D2*
X2131764D1*
X2268236D2*
X2534225D1*
X2665775D2*
X2883502D1*
X3116498D2*
X3283502D1*
X3516498D2*
X3668502D1*
X3901498D2*
X4307643D1*
X4538354D2*
X4995377D1*
X5104623D2*
X6393990D1*
X2106010Y123333D2*
X2163014D1*
X2236986D2*
X2568150D1*
X2631850D2*
X2895572D1*
X3104428D2*
X3295572D1*
X3504428D2*
X3680572D1*
X3889428D2*
X4319967D1*
X4526029D2*
X6393990D1*
X2106010Y113667D2*
X2910318D1*
X3089682D2*
X3310318D1*
X3489682D2*
X3695318D1*
X3874682D2*
X4335045D1*
X4510951D2*
X6393990D1*
X5225397Y299000D2*
X5225115Y290005D1*
X5224372Y281037D1*
X5223170Y272119D1*
X5221512Y263274D1*
X5219403Y254525D1*
X5216847Y245897D1*
X5213853Y237411D1*
X5210427Y229089D1*
X5206579Y220954D1*
X5202319Y213028D1*
X5197658Y205330D1*
X5192608Y197881D1*
X5187182Y190702D1*
X5181396Y183810D1*
X5175264Y177223D1*
X5168802Y170960D1*
X5162027Y165037D1*
X5154958Y159469D1*
X5147612Y154271D1*
X5140009Y149456D1*
X5132170Y145038D1*
X5124114Y141027D1*
X5115863Y137435D1*
X5107438Y134271D1*
X5098863Y131543D1*
X5090158Y129259D1*
X5081348Y127424D1*
X5072456Y126043D1*
X5063504Y125121D1*
X5054517Y124658D1*
X5045518Y124657D1*
X5036531Y125118D1*
X5027579Y126039D1*
X5018686Y127418D1*
X5009876Y129251D1*
X5001171Y131534D1*
X4992595Y134260D1*
X4984170Y137422D1*
X4975918Y141012D1*
X4967862Y145021D1*
X4960021Y149438D1*
X4952417Y154251D1*
X4945070Y159448D1*
X4938000Y165014D1*
X4931224Y170936D1*
X4924761Y177198D1*
X4918627Y183783D1*
X4912840Y190674D1*
X4907413Y197853D1*
X4902362Y205300D1*
X4897699Y212997D1*
X4893437Y220923D1*
X4889587Y229057D1*
X4886160Y237378D1*
X4883164Y245863D1*
X4880607Y254491D1*
X4878495Y263239D1*
X4876836Y272084D1*
X4875632Y281002D1*
X4874887Y289970D1*
X4874603Y298965D1*
X4874781Y307962D1*
X4875420Y316938D1*
X4876518Y325870D1*
X4878073Y334734D1*
X4880081Y343506D1*
X4882536Y352163D1*
X4885432Y360684D1*
X4888761Y369044D1*
X4892514Y377223D1*
X4896682Y385199D1*
X4901254Y392950D1*
X4906217Y400457D1*
X4911558Y407699D1*
X4917264Y414658D1*
X4923320Y421315D1*
X4929709Y427652D1*
X4936414Y433654D1*
X4943419Y439304D1*
X4950704Y444587D1*
X4958250Y449489D1*
X4966038Y453998D1*
X4974047Y458102D1*
X4982255Y461789D1*
X4990643Y465051D1*
X4999186Y467878D1*
X5007863Y470263D1*
X5016651Y472201D1*
X5025527Y473684D1*
X5034467Y474711D1*
X5043448Y475278D1*
X5052447Y475383D1*
X5061439Y475027D1*
X5070401Y474210D1*
X5079309Y472934D1*
X5088140Y471203D1*
X5096870Y469022D1*
X5105478Y466395D1*
X5113939Y463331D1*
X5122232Y459837D1*
X5130335Y455922D1*
X5138226Y451596D1*
X5145885Y446872D1*
X5153292Y441760D1*
X5160426Y436276D1*
X5167270Y430433D1*
X5173806Y424247D1*
X5180015Y417733D1*
X5185883Y410910D1*
X5191392Y403795D1*
X5196530Y396407D1*
X5201281Y388764D1*
X5205635Y380888D1*
X5209579Y372800D1*
X5213102Y364519D1*
X5216197Y356069D1*
X5218854Y347471D1*
X5221066Y338748D1*
X5222829Y329924D1*
X5224136Y321020D1*
X5224985Y312061D1*
X5225373Y303071D1*
X5225397Y299000D1*
X4879600Y983400D2*
X5224634D1*
X5225156Y993950D1*
X5226235Y1003890D1*
X5227878Y1013753D1*
X5230081Y1023506D1*
X5232836Y1033117D1*
X5236135Y1042556D1*
X5239965Y1051792D1*
X5244316Y1060794D1*
X5249173Y1069534D1*
X5254520Y1077983D1*
X5260339Y1086114D1*
X5266613Y1093899D1*
X5273320Y1101315D1*
X5280438Y1108336D1*
X5287945Y1114940D1*
X5295817Y1121106D1*
X5304026Y1126814D1*
X5312548Y1132044D1*
X5321354Y1136780D1*
X5330415Y1141007D1*
X5339703Y1144710D1*
X5349186Y1147878D1*
X5358835Y1150501D1*
X5368617Y1152570D1*
X5378501Y1154077D1*
X5388455Y1155020D1*
X5398447Y1155393D1*
X5408444Y1155197D1*
X5418413Y1154431D1*
X5428322Y1153098D1*
X5438140Y1151203D1*
X5447833Y1148752D1*
X5457371Y1145752D1*
X5466723Y1142213D1*
X5475858Y1138148D1*
X5484746Y1133568D1*
X5493359Y1128490D1*
X5501668Y1122929D1*
X5509648Y1116904D1*
X5517270Y1110433D1*
X5524512Y1103539D1*
X5531349Y1096243D1*
X5537760Y1088570D1*
X5543722Y1080544D1*
X5549218Y1072191D1*
X5554229Y1063538D1*
X5558738Y1054615D1*
X5562732Y1045448D1*
X5566197Y1036069D1*
X5569122Y1026508D1*
X5571497Y1016795D1*
X5573315Y1006963D1*
X5574570Y997044D1*
X5575258Y987069D1*
X5575400Y980000D1*
X5575115Y970005D1*
X5574261Y960043D1*
X5572841Y950146D1*
X5570859Y940346D1*
X5568322Y930674D1*
X5565237Y921163D1*
X5561616Y911843D1*
X5557470Y902745D1*
X5552812Y893898D1*
X5547658Y885330D1*
X5542023Y877070D1*
X5535927Y869145D1*
X5529390Y861579D1*
X5522432Y854399D1*
X5515076Y847627D1*
X5507346Y841284D1*
X5499267Y835393D1*
X5490866Y829972D1*
X5482170Y825038D1*
X5473206Y820607D1*
X5464005Y816695D1*
X5454595Y813313D1*
X5445009Y810473D1*
X5435275Y808184D1*
X5425428Y806453D1*
X5415497Y805286D1*
X5405517Y804687D1*
X5395518Y804657D1*
X5385534Y805198D1*
X5375597Y806306D1*
X5365739Y807979D1*
X5355993Y810210D1*
X5346390Y812994D1*
X5336960Y816320D1*
X5327736Y820178D1*
X5318747Y824555D1*
X5310021Y829438D1*
X5301588Y834810D1*
X5293475Y840653D1*
X5285708Y846950D1*
X5278312Y853678D1*
X5271312Y860818D1*
X5264729Y868344D1*
X5258587Y876234D1*
X5252904Y884460D1*
X5247699Y892997D1*
X5242989Y901817D1*
X5238789Y910891D1*
X5235113Y920189D1*
X5231973Y929682D1*
X5229378Y939338D1*
X5227339Y949126D1*
X5225860Y959015D1*
X5225400Y963346D1*
Y632600D1*
X4874600D1*
Y983400D1*
X4879600D1*
X2775397Y295000D2*
X2775115Y286005D1*
X2774372Y277037D1*
X2773170Y268119D1*
X2771512Y259274D1*
X2769403Y250525D1*
X2766847Y241897D1*
X2763853Y233411D1*
X2760427Y225089D1*
X2756579Y216954D1*
X2752319Y209028D1*
X2747658Y201330D1*
X2742608Y193881D1*
X2737182Y186702D1*
X2731396Y179810D1*
X2725264Y173223D1*
X2718802Y166960D1*
X2712027Y161037D1*
X2704958Y155469D1*
X2697612Y150271D1*
X2690009Y145456D1*
X2682170Y141038D1*
X2674114Y137027D1*
X2665863Y133435D1*
X2657438Y130271D1*
X2648863Y127543D1*
X2640158Y125259D1*
X2631348Y123424D1*
X2622456Y122043D1*
X2613504Y121121D1*
X2604517Y120658D1*
X2595518Y120657D1*
X2586531Y121118D1*
X2577579Y122039D1*
X2568686Y123418D1*
X2559876Y125251D1*
X2551171Y127534D1*
X2542595Y130260D1*
X2534170Y133422D1*
X2525918Y137012D1*
X2517862Y141021D1*
X2510021Y145438D1*
X2502417Y150251D1*
X2495070Y155448D1*
X2488000Y161014D1*
X2481224Y166936D1*
X2474761Y173198D1*
X2468627Y179783D1*
X2462840Y186674D1*
X2457413Y193853D1*
X2452362Y201300D1*
X2447699Y208997D1*
X2443437Y216923D1*
X2439587Y225057D1*
X2436160Y233378D1*
X2433164Y241863D1*
X2430607Y250491D1*
X2428495Y259239D1*
X2426836Y268084D1*
X2425632Y277002D1*
X2424887Y285970D1*
X2424603Y294965D1*
X2424781Y303962D1*
X2425420Y312938D1*
X2426518Y321870D1*
X2428073Y330734D1*
X2430081Y339506D1*
X2432536Y348163D1*
X2435432Y356684D1*
X2438761Y365044D1*
X2442514Y373223D1*
X2446682Y381199D1*
X2451254Y388950D1*
X2456217Y396457D1*
X2461558Y403699D1*
X2467264Y410658D1*
X2473320Y417315D1*
X2479709Y423652D1*
X2486414Y429654D1*
X2493419Y435304D1*
X2500704Y440587D1*
X2508250Y445489D1*
X2516038Y449998D1*
X2524047Y454102D1*
X2532255Y457789D1*
X2540643Y461051D1*
X2549186Y463878D1*
X2557863Y466263D1*
X2566651Y468201D1*
X2575527Y469684D1*
X2584467Y470711D1*
X2593448Y471278D1*
X2602447Y471383D1*
X2611439Y471027D1*
X2620401Y470210D1*
X2629309Y468934D1*
X2638140Y467203D1*
X2646870Y465022D1*
X2655478Y462395D1*
X2663939Y459331D1*
X2672232Y455837D1*
X2680335Y451922D1*
X2688226Y447596D1*
X2695885Y442872D1*
X2703292Y437760D1*
X2710426Y432276D1*
X2717270Y426433D1*
X2723806Y420247D1*
X2730015Y413733D1*
X2735883Y406910D1*
X2741392Y399795D1*
X2746530Y392407D1*
X2751281Y384764D1*
X2755635Y376888D1*
X2759579Y368800D1*
X2763102Y360519D1*
X2766197Y352069D1*
X2768854Y343471D1*
X2771066Y334748D1*
X2772829Y325924D1*
X2774136Y317020D1*
X2774985Y308061D1*
X2775373Y299071D1*
X2775397Y295000D1*
X2559502Y979400D2*
X2775400D1*
Y628600D1*
X2424600D1*
Y844479D1*
X2214496Y1054588D1*
X2104996Y1054600D1*
X2105000Y442441D1*
X2112548Y447044D1*
X2120461Y451329D1*
X2128584Y455203D1*
X2136894Y458655D1*
X2145371Y461676D1*
X2153992Y464258D1*
X2162733Y466395D1*
X2171573Y468081D1*
X2180487Y469311D1*
X2189453Y470083D1*
X2198447Y470393D1*
X2207445Y470242D1*
X2216423Y469629D1*
X2225358Y468557D1*
X2234226Y467028D1*
X2243004Y465047D1*
X2251669Y462617D1*
X2260198Y459746D1*
X2268568Y456442D1*
X2276758Y452713D1*
X2284746Y448568D1*
X2292511Y444020D1*
X2300032Y439079D1*
X2307290Y433759D1*
X2314266Y428073D1*
X2320940Y422038D1*
X2327297Y415668D1*
X2333318Y408980D1*
X2338989Y401992D1*
X2344293Y394723D1*
X2349218Y387191D1*
X2353750Y379416D1*
X2357877Y371420D1*
X2361589Y363222D1*
X2364875Y354844D1*
X2367728Y346309D1*
X2370138Y337639D1*
X2372101Y328857D1*
X2373611Y319985D1*
X2374664Y311048D1*
X2375258Y302069D1*
X2375389Y293000D1*
X2375055Y284007D1*
X2374261Y275043D1*
X2373008Y266132D1*
X2371300Y257297D1*
X2369141Y248560D1*
X2366536Y239947D1*
X2363493Y231478D1*
X2360020Y223176D1*
X2356126Y215063D1*
X2351820Y207161D1*
X2347115Y199490D1*
X2342023Y192070D1*
X2336557Y184921D1*
X2330732Y178062D1*
X2324562Y171511D1*
X2318064Y165285D1*
X2311256Y159400D1*
X2304155Y153873D1*
X2296780Y148716D1*
X2289150Y143945D1*
X2281285Y139572D1*
X2273206Y135607D1*
X2264935Y132062D1*
X2256492Y128946D1*
X2247901Y126268D1*
X2239184Y124033D1*
X2230364Y122248D1*
X2221464Y120918D1*
X2212507Y120046D1*
X2203517Y119635D1*
X2194519Y119686D1*
X2185534Y120198D1*
X2176588Y121170D1*
X2167703Y122599D1*
X2158903Y124482D1*
X2150212Y126815D1*
X2141651Y129590D1*
X2133244Y132800D1*
X2125013Y136437D1*
X2116979Y140492D1*
X2109164Y144953D1*
X2105000Y147555D1*
Y105020D1*
X2928145Y105000D1*
X2918747Y109555D1*
X2910021Y114438D1*
X2901588Y119810D1*
X2893475Y125653D1*
X2885708Y131950D1*
X2878312Y138678D1*
X2871312Y145818D1*
X2864729Y153344D1*
X2858587Y161234D1*
X2852904Y169460D1*
X2847699Y177997D1*
X2842989Y186817D1*
X2838789Y195891D1*
X2835113Y205189D1*
X2831973Y214682D1*
X2829378Y224338D1*
X2827339Y234126D1*
X2825860Y244015D1*
X2824947Y253972D1*
X2824603Y263965D1*
X2824829Y273961D1*
X2825624Y283928D1*
X2826986Y293833D1*
X2828910Y303645D1*
X2831390Y313331D1*
X2834418Y322860D1*
X2837984Y332201D1*
X2842077Y341324D1*
X2846682Y350199D1*
X2851786Y358797D1*
X2857372Y367090D1*
X2863421Y375051D1*
X2869914Y382655D1*
X2876829Y389876D1*
X2884145Y396692D1*
X2891837Y403079D1*
X2899881Y409018D1*
X2908250Y414489D1*
X2916917Y419475D1*
X2925854Y423958D1*
X2935032Y427924D1*
X2944422Y431362D1*
X2953992Y434258D1*
X2963711Y436605D1*
X2973548Y438394D1*
X2983472Y439619D1*
X2993448Y440278D1*
X3003447Y440366D1*
X3013434Y439885D1*
X3023377Y438835D1*
X3033245Y437221D1*
X3043004Y435047D1*
X3052624Y432320D1*
X3062072Y429049D1*
X3071319Y425246D1*
X3080335Y420922D1*
X3089089Y416091D1*
X3097553Y410769D1*
X3105701Y404973D1*
X3113505Y398723D1*
X3120940Y392038D1*
X3127983Y384940D1*
X3134609Y377452D1*
X3140798Y369599D1*
X3146530Y361407D1*
X3151785Y352900D1*
X3156547Y344109D1*
X3160800Y335060D1*
X3164531Y325783D1*
X3167728Y316309D1*
X3170379Y306668D1*
X3172476Y296892D1*
X3174013Y287013D1*
X3174985Y277061D1*
X3175388Y267071D1*
X3175329Y260001D1*
X3174759Y250018D1*
X3173621Y240085D1*
X3171920Y230232D1*
X3169659Y220492D1*
X3166847Y210897D1*
X3163493Y201478D1*
X3159608Y192265D1*
X3155204Y183288D1*
X3150296Y174577D1*
X3144899Y166160D1*
X3139032Y158064D1*
X3132712Y150315D1*
X3125962Y142940D1*
X3118802Y135960D1*
X3111256Y129400D1*
X3103349Y123281D1*
X3095105Y117622D1*
X3086553Y112443D1*
X3077719Y107759D1*
X3071831Y104999D1*
X3328145Y105000D1*
X3318747Y109555D1*
X3310021Y114438D1*
X3301588Y119810D1*
X3293475Y125653D1*
X3285708Y131950D1*
X3278312Y138678D1*
X3271312Y145818D1*
X3264729Y153344D1*
X3258587Y161234D1*
X3252904Y169460D1*
X3247699Y177997D1*
X3242989Y186817D1*
X3238789Y195891D1*
X3235113Y205189D1*
X3231973Y214682D1*
X3229378Y224338D1*
X3227339Y234126D1*
X3225860Y244015D1*
X3224947Y253972D1*
X3224603Y263965D1*
X3224829Y273961D1*
X3225624Y283928D1*
X3226986Y293833D1*
X3228910Y303645D1*
X3231390Y313331D1*
X3234418Y322860D1*
X3237984Y332201D1*
X3242077Y341324D1*
X3246682Y350199D1*
X3251786Y358797D1*
X3257372Y367090D1*
X3263421Y375051D1*
X3269914Y382655D1*
X3276829Y389876D1*
X3284145Y396692D1*
X3291837Y403079D1*
X3299881Y409018D1*
X3308250Y414489D1*
X3316917Y419475D1*
X3325854Y423958D1*
X3335032Y427924D1*
X3344422Y431362D1*
X3353992Y434258D1*
X3363711Y436605D1*
X3373548Y438394D1*
X3383472Y439619D1*
X3393448Y440278D1*
X3403447Y440366D1*
X3413434Y439885D1*
X3423377Y438835D1*
X3433245Y437221D1*
X3443004Y435047D1*
X3452624Y432320D1*
X3462072Y429049D1*
X3471319Y425246D1*
X3480335Y420922D1*
X3489089Y416091D1*
X3497553Y410769D1*
X3505701Y404973D1*
X3513505Y398723D1*
X3520940Y392038D1*
X3527983Y384940D1*
X3534609Y377452D1*
X3540798Y369599D1*
X3546530Y361407D1*
X3551785Y352900D1*
X3556547Y344109D1*
X3560800Y335060D1*
X3564531Y325783D1*
X3567728Y316309D1*
X3570379Y306668D1*
X3572476Y296892D1*
X3574013Y287013D1*
X3574985Y277061D1*
X3575388Y267071D1*
X3575329Y260001D1*
X3574759Y250018D1*
X3573621Y240085D1*
X3571920Y230232D1*
X3569659Y220492D1*
X3566847Y210897D1*
X3563493Y201478D1*
X3559608Y192265D1*
X3555204Y183288D1*
X3550296Y174577D1*
X3544899Y166160D1*
X3539032Y158064D1*
X3532712Y150315D1*
X3525962Y142940D1*
X3518802Y135960D1*
X3511256Y129400D1*
X3503349Y123281D1*
X3495105Y117622D1*
X3486553Y112443D1*
X3477719Y107759D1*
X3471831Y104999D1*
X3713145Y105000D1*
X3703747Y109555D1*
X3695021Y114438D1*
X3686588Y119810D1*
X3678475Y125653D1*
X3670708Y131950D1*
X3663312Y138678D1*
X3656312Y145818D1*
X3649729Y153344D1*
X3643587Y161234D1*
X3637904Y169460D1*
X3632699Y177997D1*
X3627989Y186817D1*
X3623789Y195891D1*
X3620113Y205189D1*
X3616973Y214682D1*
X3614378Y224338D1*
X3612339Y234126D1*
X3610860Y244015D1*
X3609947Y253972D1*
X3609603Y263965D1*
X3609829Y273961D1*
X3610624Y283928D1*
X3611986Y293833D1*
X3613910Y303645D1*
X3616390Y313331D1*
X3619418Y322860D1*
X3622984Y332201D1*
X3627077Y341324D1*
X3631682Y350199D1*
X3636786Y358797D1*
X3642372Y367090D1*
X3648421Y375051D1*
X3654914Y382655D1*
X3661829Y389876D1*
X3669145Y396692D1*
X3676837Y403079D1*
X3684881Y409018D1*
X3693250Y414489D1*
X3701917Y419475D1*
X3710854Y423958D1*
X3720032Y427924D1*
X3729422Y431362D1*
X3738992Y434258D1*
X3748711Y436605D1*
X3758548Y438394D1*
X3768472Y439619D1*
X3778448Y440278D1*
X3788447Y440366D1*
X3798434Y439885D1*
X3808377Y438835D1*
X3818245Y437221D1*
X3828004Y435047D1*
X3837624Y432320D1*
X3847072Y429049D1*
X3856319Y425246D1*
X3865335Y420922D1*
X3874089Y416091D1*
X3882553Y410769D1*
X3890701Y404973D1*
X3898505Y398723D1*
X3905940Y392038D1*
X3912983Y384940D1*
X3919609Y377452D1*
X3925798Y369599D1*
X3931530Y361407D1*
X3936785Y352900D1*
X3941547Y344109D1*
X3945800Y335060D1*
X3949531Y325783D1*
X3952728Y316309D1*
X3955379Y306668D1*
X3957476Y296892D1*
X3959013Y287013D1*
X3959985Y277061D1*
X3960388Y267071D1*
X3960329Y260001D1*
X3959759Y250018D1*
X3958621Y240085D1*
X3956920Y230232D1*
X3954659Y220492D1*
X3951847Y210897D1*
X3948493Y201478D1*
X3944608Y192265D1*
X3940204Y183288D1*
X3935296Y174577D1*
X3929899Y166160D1*
X3924032Y158064D1*
X3917712Y150315D1*
X3910962Y142940D1*
X3903802Y135960D1*
X3896256Y129400D1*
X3888349Y123281D1*
X3880105Y117622D1*
X3871553Y112443D1*
X3862719Y107759D1*
X3856831Y104999D1*
X4353418Y105000D1*
X4346210Y108303D1*
X4337349Y112934D1*
X4328766Y118064D1*
X4320490Y123674D1*
X4312546Y129746D1*
X4304962Y136261D1*
X4297761Y143198D1*
X4290967Y150534D1*
X4284602Y158245D1*
X4278687Y166306D1*
X4273240Y174691D1*
X4268281Y183373D1*
X4263824Y192324D1*
X4259885Y201514D1*
X4256475Y210913D1*
X4253607Y220491D1*
X4251289Y230218D1*
X4249529Y240060D1*
X4248332Y249987D1*
X4247704Y259966D1*
X4247645Y269964D1*
X4248156Y279950D1*
X4249235Y289890D1*
X4250878Y299753D1*
X4253081Y309506D1*
X4255836Y319117D1*
X4259135Y328556D1*
X4262965Y337792D1*
X4267316Y346794D1*
X4272173Y355534D1*
X4277520Y363983D1*
X4283339Y372114D1*
X4289613Y379899D1*
X4296320Y387315D1*
X4303438Y394336D1*
X4310945Y400940D1*
X4318817Y407106D1*
X4327026Y412814D1*
X4335548Y418044D1*
X4344354Y422780D1*
X4353415Y427007D1*
X4362703Y430710D1*
X4372186Y433878D1*
X4381835Y436501D1*
X4391617Y438570D1*
X4401501Y440077D1*
X4411455Y441020D1*
X4421447Y441393D1*
X4431444Y441197D1*
X4441413Y440431D1*
X4451322Y439098D1*
X4461140Y437203D1*
X4470833Y434752D1*
X4480371Y431752D1*
X4489723Y428213D1*
X4498858Y424148D1*
X4507746Y419568D1*
X4516359Y414490D1*
X4524668Y408929D1*
X4532648Y402904D1*
X4540270Y396433D1*
X4547512Y389539D1*
X4554349Y382243D1*
X4560760Y374570D1*
X4566722Y366544D1*
X4572218Y358191D1*
X4577229Y349538D1*
X4581738Y340615D1*
X4585732Y331448D1*
X4589197Y322069D1*
X4592122Y312508D1*
X4594497Y302795D1*
X4596315Y292963D1*
X4597570Y283044D1*
X4598258Y273069D1*
X4598400Y266000D1*
X4598115Y256005D1*
X4597261Y246043D1*
X4595841Y236146D1*
X4593859Y226346D1*
X4591322Y216674D1*
X4588237Y207163D1*
X4584616Y197843D1*
X4580470Y188745D1*
X4575812Y179898D1*
X4570658Y171330D1*
X4565023Y163070D1*
X4558927Y155145D1*
X4552390Y147579D1*
X4545432Y140399D1*
X4538076Y133627D1*
X4530346Y127284D1*
X4522267Y121393D1*
X4513866Y115972D1*
X4505170Y111038D1*
X4496206Y106607D1*
X4492580Y105004D1*
X6394980Y105000D1*
X6395000Y1159043D1*
X6391809Y1146170D1*
X6387700Y1131745D1*
X6383059Y1117482D1*
X6377894Y1103400D1*
X6372211Y1089519D1*
X6366019Y1075858D1*
X6359325Y1062435D1*
X6352140Y1049269D1*
X6344472Y1036378D1*
X6336332Y1023780D1*
X6327732Y1011491D1*
X6318684Y999529D1*
X6309199Y987910D1*
X6299290Y976649D1*
X6288972Y965763D1*
X6278257Y955266D1*
X6267162Y945173D1*
X6255701Y935497D1*
X6243890Y926252D1*
X6231745Y917450D1*
X6219283Y909104D1*
X6206520Y901224D1*
X6193475Y893822D1*
X6180164Y886908D1*
X6166607Y880491D1*
X6152822Y874580D1*
X6138828Y869182D1*
X6124643Y864307D1*
X6110288Y859959D1*
X6095782Y856146D1*
X6081144Y852872D1*
X6066396Y850142D1*
X6051556Y847959D1*
X6036646Y846327D1*
X6021686Y845247D1*
X6006696Y844722D1*
X5991697Y844752D1*
X5976709Y845336D1*
X5961753Y846475D1*
X5946850Y848167D1*
X5932019Y850408D1*
X5917281Y853197D1*
X5902657Y856529D1*
X5888166Y860400D1*
X5873828Y864804D1*
X5859663Y869736D1*
X5845690Y875189D1*
X5831928Y881155D1*
X5818397Y887625D1*
X5805114Y894592D1*
X5792098Y902046D1*
X5779367Y909976D1*
X5766937Y918372D1*
X5754827Y927222D1*
X5743053Y936514D1*
X5731631Y946235D1*
X5720576Y956372D1*
X5709903Y966912D1*
X5699628Y977839D1*
X5689764Y989138D1*
X5680325Y1000795D1*
X5671324Y1012793D1*
X5662773Y1025116D1*
X5654683Y1037746D1*
X5647067Y1050668D1*
X5639934Y1063862D1*
X5633293Y1077311D1*
X5627155Y1090997D1*
X5621528Y1104900D1*
X5616418Y1119003D1*
X5611834Y1133284D1*
X5607782Y1147725D1*
X5604267Y1162307D1*
X5601293Y1177008D1*
X5598865Y1191810D1*
X5596987Y1206691D1*
X5595661Y1221631D1*
X5594888Y1236610D1*
X5594670Y1251608D1*
X5595007Y1266603D1*
X5595898Y1281576D1*
X5597343Y1296505D1*
X5599340Y1311371D1*
X5601885Y1326153D1*
X5604975Y1340830D1*
X5608606Y1355383D1*
X5612773Y1369792D1*
X5617470Y1384036D1*
X5622691Y1398097D1*
X5628428Y1411956D1*
X5634675Y1425592D1*
X5641422Y1438988D1*
X5648659Y1452126D1*
X5656378Y1464986D1*
X5664568Y1477553D1*
X5673216Y1489807D1*
X5682312Y1501733D1*
X5691844Y1513315D1*
X5701797Y1524536D1*
X5712158Y1535381D1*
X5722914Y1545835D1*
X5734049Y1555884D1*
X5745548Y1565514D1*
X5757396Y1574713D1*
X5769576Y1583466D1*
X5782071Y1591763D1*
X5794865Y1599592D1*
X5807939Y1606942D1*
X5821277Y1613804D1*
X5834860Y1620167D1*
X5848668Y1626024D1*
X5862684Y1631365D1*
X5876888Y1636185D1*
X5891260Y1640475D1*
X5905781Y1644231D1*
X5920432Y1647447D1*
X5935191Y1650119D1*
X5950039Y1652242D1*
X5964955Y1653816D1*
X5979920Y1654836D1*
X5994912Y1655301D1*
X6009911Y1655212D1*
X6024896Y1654568D1*
X6039847Y1653370D1*
X6054744Y1651619D1*
X6069566Y1649319D1*
X6084292Y1646472D1*
X6098903Y1643082D1*
X6113379Y1639153D1*
X6127699Y1634692D1*
X6141844Y1629704D1*
X6155796Y1624196D1*
X6169533Y1618176D1*
X6183039Y1611651D1*
X6196294Y1604632D1*
X6209281Y1597126D1*
X6221980Y1589146D1*
X6234376Y1580701D1*
X6246451Y1571803D1*
X6258188Y1562464D1*
X6269572Y1552698D1*
X6280587Y1542517D1*
X6291217Y1531935D1*
X6301449Y1520968D1*
X6311268Y1509629D1*
X6320661Y1497935D1*
X6329614Y1485902D1*
X6338116Y1473545D1*
X6346156Y1460882D1*
X6353721Y1447931D1*
X6360802Y1434708D1*
X6367389Y1421233D1*
X6373472Y1407523D1*
X6379045Y1393597D1*
X6384098Y1379475D1*
X6388625Y1365175D1*
X6392621Y1350718D1*
X6394999Y1340945D1*
X6395000Y1744980D1*
X5599608Y1745015D1*
X5598086Y1745380D1*
X5596752Y1746198D1*
X5595736Y1747387D1*
X5595138Y1748833D1*
X5595000Y1750000D1*
Y2395020D1*
X5498691Y2395000D1*
X5505701Y2389973D1*
X5513505Y2383723D1*
X5520940Y2377038D1*
X5527983Y2369940D1*
X5534609Y2362452D1*
X5540798Y2354599D1*
X5546530Y2346407D1*
X5551785Y2337900D1*
X5556547Y2329109D1*
X5560800Y2320060D1*
X5564531Y2310783D1*
X5567728Y2301309D1*
X5570379Y2291668D1*
X5572476Y2281892D1*
X5574013Y2272013D1*
X5574985Y2262061D1*
X5575388Y2252071D1*
X5575329Y2245001D1*
X5574759Y2235018D1*
X5573621Y2225085D1*
X5571920Y2215232D1*
X5569659Y2205492D1*
X5566847Y2195897D1*
X5563493Y2186478D1*
X5559608Y2177265D1*
X5555204Y2168288D1*
X5550296Y2159577D1*
X5544899Y2151160D1*
X5539032Y2143064D1*
X5532712Y2135315D1*
X5525962Y2127940D1*
X5518802Y2120960D1*
X5511256Y2114400D1*
X5503349Y2108281D1*
X5495105Y2102622D1*
X5486553Y2097443D1*
X5477719Y2092759D1*
X5468633Y2088586D1*
X5459324Y2084937D1*
X5449822Y2081825D1*
X5440158Y2079259D1*
X5430364Y2077248D1*
X5420471Y2075799D1*
X5410511Y2074915D1*
X5400518Y2074601D1*
X5390522Y2074856D1*
X5380558Y2075681D1*
X5370656Y2077072D1*
X5360850Y2079025D1*
X5351171Y2081534D1*
X5341651Y2084590D1*
X5332321Y2088183D1*
X5323210Y2092303D1*
X5314349Y2096934D1*
X5305766Y2102064D1*
X5297490Y2107674D1*
X5289546Y2113746D1*
X5281962Y2120261D1*
X5274761Y2127198D1*
X5267967Y2134534D1*
X5261602Y2142245D1*
X5255687Y2150306D1*
X5250240Y2158691D1*
X5245281Y2167373D1*
X5240824Y2176324D1*
X5236885Y2185514D1*
X5233475Y2194913D1*
X5230607Y2204491D1*
X5228289Y2214218D1*
X5226529Y2224060D1*
X5225332Y2233987D1*
X5224704Y2243966D1*
X5224645Y2253964D1*
X5225156Y2263950D1*
X5226235Y2273890D1*
X5227878Y2283753D1*
X5230081Y2293506D1*
X5232836Y2303117D1*
X5236135Y2312556D1*
X5239965Y2321792D1*
X5244316Y2330794D1*
X5249173Y2339534D1*
X5254520Y2347983D1*
X5260339Y2356114D1*
X5266613Y2363899D1*
X5273320Y2371315D1*
X5280438Y2378336D1*
X5287945Y2384940D1*
X5295817Y2391106D1*
X5301322Y2394990D1*
X5033691Y2395000D1*
X5040701Y2389973D1*
X5048505Y2383723D1*
X5055940Y2377038D1*
X5062983Y2369940D1*
X5069609Y2362452D1*
X5075798Y2354599D1*
X5081530Y2346407D1*
X5086785Y2337900D1*
X5091547Y2329109D1*
X5095800Y2320060D1*
X5099531Y2310783D1*
X5102728Y2301309D1*
X5105379Y2291668D1*
X5107476Y2281892D1*
X5109013Y2272013D1*
X5109985Y2262061D1*
X5110388Y2252071D1*
X5110329Y2245001D1*
X5109759Y2235018D1*
X5108621Y2225085D1*
X5106920Y2215232D1*
X5104659Y2205492D1*
X5101847Y2195897D1*
X5098493Y2186478D1*
X5094608Y2177265D1*
X5090204Y2168288D1*
X5085296Y2159577D1*
X5079899Y2151160D1*
X5074032Y2143064D1*
X5067712Y2135315D1*
X5060962Y2127940D1*
X5053802Y2120960D1*
X5046256Y2114400D1*
X5038349Y2108281D1*
X5030105Y2102622D1*
X5021553Y2097443D1*
X5012719Y2092759D1*
X5003633Y2088586D1*
X4994324Y2084937D1*
X4984822Y2081825D1*
X4975158Y2079259D1*
X4965364Y2077248D1*
X4955471Y2075799D1*
X4946738Y2075006D1*
X4958377Y2073835D1*
X4968245Y2072221D1*
X4978004Y2070047D1*
X4987624Y2067320D1*
X4997072Y2064049D1*
X5006319Y2060246D1*
X5015335Y2055922D1*
X5024089Y2051091D1*
X5032553Y2045769D1*
X5040701Y2039973D1*
X5048505Y2033723D1*
X5055940Y2027038D1*
X5062983Y2019940D1*
X5069609Y2012452D1*
X5075798Y2004599D1*
X5081530Y1996407D1*
X5086785Y1987900D1*
X5091547Y1979109D1*
X5095800Y1970060D1*
X5099531Y1960783D1*
X5102728Y1951309D1*
X5105379Y1941668D1*
X5107476Y1931892D1*
X5109013Y1922013D1*
X5109985Y1912061D1*
X5110388Y1902071D1*
X5110329Y1895001D1*
X5109759Y1885018D1*
X5108621Y1875085D1*
X5106920Y1865232D1*
X5104659Y1855492D1*
X5101847Y1845897D1*
X5098493Y1836478D1*
X5094608Y1827265D1*
X5090204Y1818288D1*
X5085296Y1809577D1*
X5079899Y1801160D1*
X5074032Y1793064D1*
X5067712Y1785315D1*
X5060962Y1777940D1*
X5053802Y1770960D1*
X5046256Y1764400D1*
X5038349Y1758281D1*
X5030105Y1752622D1*
X5021553Y1747443D1*
X5012719Y1742759D1*
X5003633Y1738586D1*
X4994324Y1734937D1*
X4984822Y1731825D1*
X4975158Y1729259D1*
X4965364Y1727248D1*
X4955471Y1725799D1*
X4945511Y1724915D1*
X4935518Y1724601D1*
X4925522Y1724856D1*
X4915558Y1725681D1*
X4905656Y1727072D1*
X4895850Y1729025D1*
X4886171Y1731534D1*
X4876651Y1734590D1*
X4867321Y1738183D1*
X4858210Y1742303D1*
X4849349Y1746934D1*
X4840766Y1752064D1*
X4832490Y1757674D1*
X4824546Y1763746D1*
X4816962Y1770261D1*
X4809761Y1777198D1*
X4802967Y1784534D1*
X4796602Y1792245D1*
X4790687Y1800306D1*
X4785240Y1808691D1*
X4780281Y1817373D1*
X4775824Y1826324D1*
X4771885Y1835514D1*
X4768475Y1844913D1*
X4765607Y1854491D1*
X4763289Y1864218D1*
X4761529Y1874060D1*
X4760332Y1883987D1*
X4759704Y1893966D1*
X4759645Y1903964D1*
X4760156Y1913950D1*
X4761235Y1923890D1*
X4762878Y1933753D1*
X4765081Y1943506D1*
X4767836Y1953117D1*
X4771135Y1962556D1*
X4774965Y1971792D1*
X4779316Y1980794D1*
X4784173Y1989534D1*
X4789520Y1997983D1*
X4795339Y2006114D1*
X4801613Y2013899D1*
X4808320Y2021315D1*
X4815438Y2028336D1*
X4822945Y2034940D1*
X4830817Y2041106D1*
X4839026Y2046814D1*
X4847548Y2052044D1*
X4856354Y2056780D1*
X4865415Y2061007D1*
X4874703Y2064710D1*
X4884186Y2067878D1*
X4893835Y2070501D1*
X4903617Y2072570D1*
X4913501Y2074077D1*
X4923202Y2074999D1*
X4915558Y2075681D1*
X4905656Y2077072D1*
X4895850Y2079025D1*
X4886171Y2081534D1*
X4876651Y2084590D1*
X4867321Y2088183D1*
X4858210Y2092303D1*
X4849349Y2096934D1*
X4840766Y2102064D1*
X4832490Y2107674D1*
X4824546Y2113746D1*
X4816962Y2120261D1*
X4809761Y2127198D1*
X4802967Y2134534D1*
X4796602Y2142245D1*
X4790687Y2150306D1*
X4785240Y2158691D1*
X4780281Y2167373D1*
X4775824Y2176324D1*
X4771885Y2185514D1*
X4768475Y2194913D1*
X4765607Y2204491D1*
X4763289Y2214218D1*
X4761529Y2224060D1*
X4760332Y2233987D1*
X4759704Y2243966D1*
X4759645Y2253964D1*
X4760156Y2263950D1*
X4761235Y2273890D1*
X4762878Y2283753D1*
X4765081Y2293506D1*
X4767836Y2303117D1*
X4771135Y2312556D1*
X4774965Y2321792D1*
X4779316Y2330794D1*
X4784173Y2339534D1*
X4789520Y2347983D1*
X4795339Y2356114D1*
X4801613Y2363899D1*
X4808320Y2371315D1*
X4815438Y2378336D1*
X4822945Y2384940D1*
X4830817Y2391106D1*
X4836322Y2394990D1*
X3763691Y2395000D1*
X3770701Y2389973D1*
X3778505Y2383723D1*
X3785940Y2377038D1*
X3792983Y2369940D1*
X3799609Y2362452D1*
X3805798Y2354599D1*
X3811530Y2346407D1*
X3816785Y2337900D1*
X3821547Y2329109D1*
X3825800Y2320060D1*
X3829531Y2310783D1*
X3832728Y2301309D1*
X3835379Y2291668D1*
X3837476Y2281892D1*
X3839013Y2272013D1*
X3839985Y2262061D1*
X3840388Y2252071D1*
X3840329Y2245001D1*
X3839759Y2235018D1*
X3838621Y2225085D1*
X3836920Y2215232D1*
X3834659Y2205492D1*
X3831847Y2195897D1*
X3828493Y2186478D1*
X3824608Y2177265D1*
X3820204Y2168288D1*
X3815296Y2159577D1*
X3809899Y2151160D1*
X3804032Y2143064D1*
X3797712Y2135315D1*
X3790962Y2127940D1*
X3783802Y2120960D1*
X3776256Y2114400D1*
X3768349Y2108281D1*
X3760105Y2102622D1*
X3751553Y2097443D1*
X3742719Y2092759D1*
X3733633Y2088586D1*
X3724324Y2084937D1*
X3714822Y2081825D1*
X3705158Y2079259D1*
X3695364Y2077248D1*
X3685471Y2075799D1*
X3676738Y2075006D1*
X3688377Y2073835D1*
X3698245Y2072221D1*
X3708004Y2070047D1*
X3717624Y2067320D1*
X3727072Y2064049D1*
X3736319Y2060246D1*
X3745335Y2055922D1*
X3754089Y2051091D1*
X3762553Y2045769D1*
X3770701Y2039973D1*
X3778505Y2033723D1*
X3785940Y2027038D1*
X3792983Y2019940D1*
X3799609Y2012452D1*
X3805798Y2004599D1*
X3811530Y1996407D1*
X3816785Y1987900D1*
X3821547Y1979109D1*
X3825800Y1970060D1*
X3829531Y1960783D1*
X3832728Y1951309D1*
X3835379Y1941668D1*
X3837476Y1931892D1*
X3839013Y1922013D1*
X3839985Y1912061D1*
X3840388Y1902071D1*
X3840329Y1895001D1*
X3839759Y1885018D1*
X3838621Y1875085D1*
X3836920Y1865232D1*
X3834659Y1855492D1*
X3831847Y1845897D1*
X3828493Y1836478D1*
X3824608Y1827265D1*
X3820204Y1818288D1*
X3815296Y1809577D1*
X3809899Y1801160D1*
X3804032Y1793064D1*
X3797712Y1785315D1*
X3790962Y1777940D1*
X3783802Y1770960D1*
X3776256Y1764400D1*
X3768349Y1758281D1*
X3760105Y1752622D1*
X3751553Y1747443D1*
X3742719Y1742759D1*
X3733633Y1738586D1*
X3724324Y1734937D1*
X3714822Y1731825D1*
X3705158Y1729259D1*
X3695364Y1727248D1*
X3685471Y1725799D1*
X3675511Y1724915D1*
X3665518Y1724601D1*
X3655522Y1724856D1*
X3645558Y1725681D1*
X3635656Y1727072D1*
X3625850Y1729025D1*
X3616171Y1731534D1*
X3606651Y1734590D1*
X3597321Y1738183D1*
X3588210Y1742303D1*
X3579349Y1746934D1*
X3570766Y1752064D1*
X3562490Y1757674D1*
X3554546Y1763746D1*
X3546962Y1770261D1*
X3539761Y1777198D1*
X3532967Y1784534D1*
X3526602Y1792245D1*
X3520687Y1800306D1*
X3515240Y1808691D1*
X3510281Y1817373D1*
X3505824Y1826324D1*
X3501885Y1835514D1*
X3498475Y1844913D1*
X3495607Y1854491D1*
X3493289Y1864218D1*
X3491529Y1874060D1*
X3490332Y1883987D1*
X3489704Y1893966D1*
X3489645Y1903964D1*
X3490156Y1913950D1*
X3491235Y1923890D1*
X3492878Y1933753D1*
X3495081Y1943506D1*
X3497836Y1953117D1*
X3501135Y1962556D1*
X3504965Y1971792D1*
X3509316Y1980794D1*
X3514173Y1989534D1*
X3519520Y1997983D1*
X3525339Y2006114D1*
X3531613Y2013899D1*
X3538320Y2021315D1*
X3545438Y2028336D1*
X3552945Y2034940D1*
X3560817Y2041106D1*
X3569026Y2046814D1*
X3577548Y2052044D1*
X3586354Y2056780D1*
X3595415Y2061007D1*
X3604703Y2064710D1*
X3614186Y2067878D1*
X3623835Y2070501D1*
X3633617Y2072570D1*
X3643501Y2074077D1*
X3653202Y2074999D1*
X3645558Y2075681D1*
X3635656Y2077072D1*
X3625850Y2079025D1*
X3616171Y2081534D1*
X3606651Y2084590D1*
X3597321Y2088183D1*
X3588210Y2092303D1*
X3579349Y2096934D1*
X3570766Y2102064D1*
X3562490Y2107674D1*
X3554546Y2113746D1*
X3546962Y2120261D1*
X3539761Y2127198D1*
X3532967Y2134534D1*
X3526602Y2142245D1*
X3520687Y2150306D1*
X3515240Y2158691D1*
X3510281Y2167373D1*
X3505824Y2176324D1*
X3501885Y2185514D1*
X3498475Y2194913D1*
X3495607Y2204491D1*
X3493289Y2214218D1*
X3491529Y2224060D1*
X3490332Y2233987D1*
X3489704Y2243966D1*
X3489645Y2253964D1*
X3490156Y2263950D1*
X3491235Y2273890D1*
X3492878Y2283753D1*
X3495081Y2293506D1*
X3497836Y2303117D1*
X3501135Y2312556D1*
X3504965Y2321792D1*
X3509316Y2330794D1*
X3514173Y2339534D1*
X3519520Y2347983D1*
X3525339Y2356114D1*
X3531613Y2363899D1*
X3538320Y2371315D1*
X3545438Y2378336D1*
X3552945Y2384940D1*
X3560817Y2391106D1*
X3566322Y2394990D1*
X2105000Y2395000D1*
Y1712441D1*
X2112548Y1717044D1*
X2121354Y1721780D1*
X2130415Y1726007D1*
X2139703Y1729710D1*
X2149186Y1732878D1*
X2158835Y1735501D1*
X2168617Y1737570D1*
X2178501Y1739077D1*
X2188455Y1740020D1*
X2198447Y1740393D1*
X2208444Y1740197D1*
X2218413Y1739431D1*
X2228322Y1738098D1*
X2238140Y1736203D1*
X2247833Y1733752D1*
X2257371Y1730752D1*
X2266723Y1727213D1*
X2275858Y1723148D1*
X2284746Y1718568D1*
X2293359Y1713490D1*
X2301668Y1707929D1*
X2309648Y1701904D1*
X2317270Y1695433D1*
X2324512Y1688539D1*
X2331349Y1681243D1*
X2337760Y1673570D1*
X2343722Y1665544D1*
X2349218Y1657191D1*
X2354229Y1648538D1*
X2358738Y1639615D1*
X2362732Y1630448D1*
X2366197Y1621069D1*
X2369122Y1611508D1*
X2371497Y1601795D1*
X2373315Y1591963D1*
X2374570Y1582044D1*
X2375258Y1572069D1*
X2375400Y1565000D1*
X2375115Y1555005D1*
X2374261Y1545043D1*
X2372841Y1535146D1*
X2370859Y1525346D1*
X2368322Y1515674D1*
X2365237Y1506163D1*
X2361616Y1496843D1*
X2357470Y1487745D1*
X2352812Y1478898D1*
X2347658Y1470330D1*
X2342023Y1462070D1*
X2335927Y1454145D1*
X2329390Y1446579D1*
X2322432Y1439399D1*
X2315076Y1432627D1*
X2307346Y1426284D1*
X2299267Y1420393D1*
X2290866Y1414972D1*
X2282170Y1410038D1*
X2273206Y1405607D1*
X2264005Y1401695D1*
X2254595Y1398313D1*
X2245009Y1395473D1*
X2235275Y1393184D1*
X2225428Y1391453D1*
X2215497Y1390286D1*
X2205517Y1389687D1*
X2195518Y1389657D1*
X2185534Y1390198D1*
X2175597Y1391306D1*
X2165739Y1392979D1*
X2155993Y1395210D1*
X2146390Y1397994D1*
X2136960Y1401320D1*
X2127736Y1405178D1*
X2118747Y1409555D1*
X2110021Y1414438D1*
X2104999Y1417568D1*
X2105000Y1245410D1*
X2254000Y1245400D1*
X2258998Y1245269D1*
X2263982Y1244877D1*
X2268938Y1244224D1*
X2273854Y1243312D1*
X2278715Y1242143D1*
X2283508Y1240722D1*
X2288220Y1239052D1*
X2292838Y1237137D1*
X2297350Y1234982D1*
X2301742Y1232595D1*
X2306003Y1229980D1*
X2310122Y1227146D1*
X2314086Y1224100D1*
X2317900Y1220837D1*
X2328529Y1210387D1*
X2559513Y979404D1*
X6155320Y545001D2*
X6154677Y535023D1*
X6153393Y525108D1*
X6151475Y515295D1*
X6148930Y505626D1*
X6145768Y496141D1*
X6142003Y486879D1*
X6137650Y477878D1*
X6132727Y469175D1*
X6127255Y460808D1*
X6121256Y452809D1*
X6120098Y451410D1*
X6155400Y451400D1*
Y140600D1*
X5844600D1*
Y451400D1*
X5879885D1*
X5874610Y458203D1*
X5868967Y466457D1*
X5863866Y475056D1*
X5859328Y483965D1*
X5855373Y493148D1*
X5852016Y502566D1*
X5849272Y512180D1*
X5847152Y521951D1*
X5845665Y531838D1*
X5844816Y541800D1*
X5844610Y551796D1*
X5845048Y561785D1*
X5846126Y571725D1*
X5847842Y581575D1*
X5850187Y591294D1*
X5853153Y600843D1*
X5856726Y610181D1*
X5860892Y619269D1*
X5865635Y628071D1*
X5870933Y636550D1*
X5876766Y644671D1*
X5883109Y652400D1*
X5889936Y659704D1*
X5897218Y666555D1*
X5904926Y672923D1*
X5913028Y678783D1*
X5921489Y684109D1*
X5930276Y688880D1*
X5939351Y693076D1*
X5948677Y696680D1*
X5958215Y699677D1*
X5967927Y702054D1*
X5977771Y703802D1*
X5987708Y704913D1*
X5997695Y705383D1*
X6007692Y705210D1*
X6017657Y704394D1*
X6027548Y702939D1*
X6037326Y700851D1*
X6046949Y698138D1*
X6056378Y694812D1*
X6065574Y690887D1*
X6074498Y686379D1*
X6083114Y681306D1*
X6091386Y675689D1*
X6099279Y669553D1*
X6106761Y662921D1*
X6113802Y655822D1*
X6120371Y648285D1*
X6126442Y640341D1*
X6131990Y632023D1*
X6136992Y623365D1*
X6141426Y614404D1*
X6145275Y605176D1*
X6148522Y595720D1*
X6151155Y586075D1*
X6153162Y576280D1*
X6154535Y566377D1*
X6155268Y556405D1*
X6155400Y550000D1*
X6155320Y545001D1*
X3260014Y1780621D2*
X3251292Y1780930D1*
X3241366Y1782117D1*
X3231579Y1784158D1*
X3222006Y1787038D1*
X3212719Y1790737D1*
X3203786Y1795225D1*
X3195275Y1800469D1*
X3187250Y1806431D1*
X3179771Y1813064D1*
X3172895Y1820320D1*
X3166672Y1828144D1*
X3161149Y1836477D1*
X3156369Y1845257D1*
X3152366Y1854417D1*
X3149171Y1863890D1*
X3146808Y1873603D1*
X3145294Y1883485D1*
X3144641Y1893460D1*
X3144855Y1903455D1*
X3145213Y1907599D1*
X3106284Y1907660D1*
X3096316Y1908416D1*
X3086450Y1910031D1*
X3076762Y1912494D1*
X3067322Y1915787D1*
X3058204Y1919884D1*
X3049474Y1924755D1*
X3041198Y1930363D1*
X3033439Y1936666D1*
X3026254Y1943618D1*
X3019698Y1951165D1*
X3013820Y1959251D1*
X3008664Y1967815D1*
X3004268Y1976793D1*
X3000666Y1986119D1*
X2997884Y1995721D1*
X2995944Y2005528D1*
X2994860Y2015466D1*
X2994640Y2025460D1*
X2995286Y2035436D1*
X2996792Y2045319D1*
X2999149Y2055034D1*
X3002337Y2064509D1*
X3006334Y2073672D1*
X3011108Y2082455D1*
X3016625Y2090792D1*
X3022842Y2098620D1*
X3029714Y2105881D1*
X3037189Y2112519D1*
X3045209Y2118486D1*
X3053717Y2123736D1*
X3062646Y2128231D1*
X3071931Y2131935D1*
X3081502Y2134822D1*
X3091287Y2136870D1*
X3101212Y2138064D1*
X3110013Y2138380D1*
X3145189Y2138400D1*
X3144641Y2147460D1*
X3144855Y2157455D1*
X3145932Y2167394D1*
X3147865Y2177202D1*
X3150640Y2186806D1*
X3154236Y2196134D1*
X3158626Y2205115D1*
X3163776Y2213683D1*
X3169649Y2221773D1*
X3176200Y2229325D1*
X3183379Y2236281D1*
X3191134Y2242589D1*
X3199406Y2248203D1*
X3208133Y2253080D1*
X3217249Y2257184D1*
X3226685Y2260483D1*
X3236372Y2262952D1*
X3246237Y2264575D1*
X3256204Y2265337D1*
X3315014Y2265400D1*
X3341204Y2265394D1*
X3351186Y2264858D1*
X3361085Y2263460D1*
X3370825Y2261211D1*
X3380335Y2258127D1*
X3389541Y2254231D1*
X3398376Y2249554D1*
X3406774Y2244129D1*
X3414670Y2237998D1*
X3422005Y2231206D1*
X3428726Y2223806D1*
X3434781Y2215851D1*
X3440124Y2207402D1*
X3444717Y2198522D1*
X3448523Y2189279D1*
X3451515Y2179740D1*
X3453671Y2169978D1*
X3454974Y2160067D1*
X3455413Y2150000D1*
X3454980Y2140013D1*
X3453685Y2130100D1*
X3451536Y2120337D1*
X3448550Y2110796D1*
X3444750Y2101550D1*
X3440164Y2092667D1*
X3434826Y2084214D1*
X3428777Y2076256D1*
X3422061Y2068850D1*
X3414730Y2062054D1*
X3406838Y2055917D1*
X3398445Y2050487D1*
X3389613Y2045803D1*
X3380409Y2041901D1*
X3370902Y2038811D1*
X3361163Y2036555D1*
X3351265Y2035150D1*
X3341283Y2034607D1*
X3304838Y2034600D1*
X3305302Y2028078D1*
X3305305Y2018002D1*
X3304805Y2011401D1*
X3341204Y2011394D1*
X3351186Y2010858D1*
X3361085Y2009460D1*
X3370825Y2007211D1*
X3380335Y2004127D1*
X3389541Y2000231D1*
X3398376Y1995554D1*
X3406774Y1990129D1*
X3414670Y1983998D1*
X3422005Y1977206D1*
X3428726Y1969806D1*
X3434781Y1961851D1*
X3440124Y1953402D1*
X3444717Y1944522D1*
X3448523Y1935279D1*
X3451515Y1925740D1*
X3453671Y1915978D1*
X3454974Y1906067D1*
X3455413Y1896000D1*
X3454980Y1886013D1*
X3453685Y1876100D1*
X3451536Y1866337D1*
X3448550Y1856796D1*
X3444750Y1847550D1*
X3440164Y1838667D1*
X3434826Y1830214D1*
X3428777Y1822256D1*
X3422061Y1814850D1*
X3414730Y1808054D1*
X3406838Y1801917D1*
X3398445Y1796487D1*
X3389613Y1791803D1*
X3380409Y1787901D1*
X3370902Y1784811D1*
X3361163Y1782555D1*
X3351265Y1781150D1*
X3341283Y1780607D1*
X3260014Y1780619D1*
X4252600Y949400D2*
X4598400D1*
Y676802D1*
X4607415Y681007D1*
X4616703Y684710D1*
X4626186Y687878D1*
X4635835Y690501D1*
X4645617Y692570D1*
X4655501Y694077D1*
X4665455Y695020D1*
X4675447Y695393D1*
X4685444Y695197D1*
X4695413Y694431D1*
X4705322Y693098D1*
X4715140Y691203D1*
X4724833Y688752D1*
X4734371Y685752D1*
X4743723Y682213D1*
X4752858Y678148D1*
X4761746Y673568D1*
X4770359Y668490D1*
X4778668Y662929D1*
X4786648Y656904D1*
X4794270Y650433D1*
X4801512Y643539D1*
X4808349Y636243D1*
X4814760Y628570D1*
X4820722Y620544D1*
X4826218Y612191D1*
X4831229Y603538D1*
X4835738Y594615D1*
X4839732Y585448D1*
X4843197Y576069D1*
X4846122Y566508D1*
X4848497Y556795D1*
X4850315Y546963D1*
X4851570Y537044D1*
X4852258Y527069D1*
X4852400Y520000D1*
X4852115Y510005D1*
X4851261Y500043D1*
X4849841Y490146D1*
X4847859Y480346D1*
X4845322Y470674D1*
X4842237Y461163D1*
X4838616Y451843D1*
X4834470Y442745D1*
X4829812Y433898D1*
X4824658Y425330D1*
X4819023Y417070D1*
X4812927Y409145D1*
X4806390Y401579D1*
X4799432Y394399D1*
X4792076Y387627D1*
X4784346Y381284D1*
X4776267Y375393D1*
X4767866Y369972D1*
X4759170Y365038D1*
X4750206Y360607D1*
X4741005Y356695D1*
X4731595Y353313D1*
X4722009Y350473D1*
X4712275Y348184D1*
X4702428Y346453D1*
X4692497Y345286D1*
X4682517Y344687D1*
X4672518Y344657D1*
X4662534Y345198D1*
X4652597Y346306D1*
X4642739Y347979D1*
X4632993Y350210D1*
X4623390Y352994D1*
X4613960Y356320D1*
X4604736Y360178D1*
X4595747Y364555D1*
X4587021Y369438D1*
X4578588Y374810D1*
X4570475Y380653D1*
X4562708Y386950D1*
X4555312Y393678D1*
X4548312Y400818D1*
X4541729Y408344D1*
X4535587Y416234D1*
X4529904Y424460D1*
X4524699Y432997D1*
X4519989Y441817D1*
X4515789Y450891D1*
X4512113Y460189D1*
X4508973Y469682D1*
X4506378Y479338D1*
X4504339Y489126D1*
X4502860Y499015D1*
X4501947Y508972D1*
X4501603Y518965D1*
X4501829Y528961D1*
X4502624Y538928D1*
X4503986Y548833D1*
X4505910Y558645D1*
X4508390Y568331D1*
X4511418Y577860D1*
X4514984Y587201D1*
X4519077Y596324D1*
X4520223Y598612D1*
X4247600Y598600D1*
Y949400D1*
X4252600D1*
X3960397Y1534000D2*
X3960115Y1525005D1*
X3959372Y1516037D1*
X3958170Y1507119D1*
X3956512Y1498274D1*
X3954403Y1489525D1*
X3951847Y1480897D1*
X3948853Y1472411D1*
X3945427Y1464089D1*
X3941579Y1455954D1*
X3937319Y1448028D1*
X3932658Y1440330D1*
X3927608Y1432881D1*
X3922182Y1425702D1*
X3916396Y1418810D1*
X3910264Y1412223D1*
X3903802Y1405960D1*
X3897027Y1400037D1*
X3889958Y1394469D1*
X3882612Y1389271D1*
X3875009Y1384456D1*
X3867170Y1380038D1*
X3859114Y1376027D1*
X3850863Y1372435D1*
X3842438Y1369271D1*
X3833863Y1366543D1*
X3825158Y1364259D1*
X3816348Y1362424D1*
X3807456Y1361043D1*
X3798504Y1360121D1*
X3789517Y1359658D1*
X3780518Y1359657D1*
X3771531Y1360118D1*
X3762579Y1361039D1*
X3753686Y1362418D1*
X3744876Y1364251D1*
X3736171Y1366534D1*
X3727595Y1369260D1*
X3719170Y1372422D1*
X3710918Y1376012D1*
X3702862Y1380021D1*
X3695021Y1384438D1*
X3687417Y1389251D1*
X3680070Y1394448D1*
X3673000Y1400014D1*
X3666224Y1405936D1*
X3659761Y1412198D1*
X3653627Y1418783D1*
X3647840Y1425674D1*
X3642413Y1432853D1*
X3637362Y1440300D1*
X3632699Y1447997D1*
X3628437Y1455923D1*
X3624587Y1464057D1*
X3621160Y1472378D1*
X3618164Y1480863D1*
X3615607Y1489491D1*
X3613495Y1498239D1*
X3611836Y1507084D1*
X3610632Y1516002D1*
X3609887Y1524970D1*
X3609603Y1533965D1*
X3609781Y1542962D1*
X3610420Y1551938D1*
X3611518Y1560870D1*
X3613073Y1569734D1*
X3615081Y1578506D1*
X3617536Y1587163D1*
X3620432Y1595684D1*
X3623761Y1604044D1*
X3627514Y1612223D1*
X3631682Y1620199D1*
X3636254Y1627950D1*
X3641217Y1635457D1*
X3646558Y1642699D1*
X3652264Y1649658D1*
X3658320Y1656315D1*
X3664709Y1662652D1*
X3671414Y1668654D1*
X3678419Y1674304D1*
X3685704Y1679587D1*
X3693250Y1684489D1*
X3701038Y1688998D1*
X3709047Y1693102D1*
X3717255Y1696789D1*
X3725643Y1700051D1*
X3734186Y1702878D1*
X3742863Y1705263D1*
X3751651Y1707201D1*
X3760527Y1708684D1*
X3769467Y1709711D1*
X3778448Y1710278D1*
X3787447Y1710383D1*
X3796439Y1710027D1*
X3805401Y1709210D1*
X3814309Y1707934D1*
X3823140Y1706203D1*
X3831870Y1704022D1*
X3840478Y1701395D1*
X3848939Y1698331D1*
X3857232Y1694837D1*
X3865335Y1690922D1*
X3873226Y1686596D1*
X3880885Y1681872D1*
X3888292Y1676760D1*
X3895426Y1671276D1*
X3902270Y1665433D1*
X3908806Y1659247D1*
X3915015Y1652733D1*
X3920883Y1645910D1*
X3926392Y1638795D1*
X3931530Y1631407D1*
X3936281Y1623764D1*
X3940635Y1615888D1*
X3944579Y1607800D1*
X3948102Y1599519D1*
X3951197Y1591069D1*
X3953854Y1582471D1*
X3956066Y1573748D1*
X3957829Y1564924D1*
X3959136Y1556020D1*
X3959985Y1547061D1*
X3960373Y1538071D1*
X3960397Y1534000D1*
X3575329Y1530001D2*
X3574759Y1520018D1*
X3573621Y1510085D1*
X3571920Y1500232D1*
X3569659Y1490492D1*
X3566847Y1480897D1*
X3563493Y1471478D1*
X3559608Y1462265D1*
X3555204Y1453288D1*
X3550296Y1444577D1*
X3544899Y1436160D1*
X3539032Y1428064D1*
X3532712Y1420315D1*
X3525962Y1412940D1*
X3518802Y1405960D1*
X3511256Y1399400D1*
X3503349Y1393281D1*
X3495105Y1387622D1*
X3486553Y1382443D1*
X3477719Y1377759D1*
X3468633Y1373586D1*
X3459324Y1369937D1*
X3449822Y1366825D1*
X3440158Y1364259D1*
X3430364Y1362248D1*
X3420471Y1360799D1*
X3410511Y1359915D1*
X3400518Y1359601D1*
X3390522Y1359856D1*
X3380558Y1360681D1*
X3370656Y1362072D1*
X3360850Y1364025D1*
X3351171Y1366534D1*
X3341651Y1369590D1*
X3332321Y1373183D1*
X3323210Y1377303D1*
X3314349Y1381934D1*
X3305766Y1387064D1*
X3297490Y1392674D1*
X3289546Y1398746D1*
X3281962Y1405261D1*
X3274761Y1412198D1*
X3267967Y1419534D1*
X3261602Y1427245D1*
X3255687Y1435306D1*
X3250240Y1443691D1*
X3245281Y1452373D1*
X3240824Y1461324D1*
X3236885Y1470514D1*
X3233475Y1479913D1*
X3230607Y1489491D1*
X3228289Y1499218D1*
X3226529Y1509060D1*
X3225332Y1518987D1*
X3224704Y1528966D1*
X3224645Y1538964D1*
X3225156Y1548950D1*
X3226235Y1558890D1*
X3227878Y1568753D1*
X3230081Y1578506D1*
X3232836Y1588117D1*
X3236135Y1597556D1*
X3239965Y1606792D1*
X3244316Y1615794D1*
X3249173Y1624534D1*
X3254520Y1632983D1*
X3260339Y1641114D1*
X3266613Y1648899D1*
X3273320Y1656315D1*
X3280438Y1663336D1*
X3287945Y1669940D1*
X3295817Y1676106D1*
X3304026Y1681814D1*
X3312548Y1687044D1*
X3321354Y1691780D1*
X3330415Y1696007D1*
X3339703Y1699710D1*
X3349186Y1702878D1*
X3358835Y1705501D1*
X3368617Y1707570D1*
X3378501Y1709077D1*
X3388455Y1710020D1*
X3398447Y1710393D1*
X3408444Y1710197D1*
X3418413Y1709431D1*
X3428322Y1708098D1*
X3438140Y1706203D1*
X3447833Y1703752D1*
X3457371Y1700752D1*
X3466723Y1697213D1*
X3475858Y1693148D1*
X3484746Y1688568D1*
X3493359Y1683490D1*
X3501668Y1677929D1*
X3509648Y1671904D1*
X3517270Y1665433D1*
X3524512Y1658539D1*
X3531349Y1651243D1*
X3537760Y1643570D1*
X3543722Y1635544D1*
X3549218Y1627191D1*
X3554229Y1618538D1*
X3558738Y1609615D1*
X3562732Y1600448D1*
X3566197Y1591069D1*
X3569122Y1581508D1*
X3571497Y1571795D1*
X3573315Y1561963D1*
X3574570Y1552044D1*
X3575258Y1542069D1*
X3575400Y1535000D1*
X3575329Y1530001D1*
X3175329D2*
X3174759Y1520018D1*
X3173621Y1510085D1*
X3171920Y1500232D1*
X3169659Y1490492D1*
X3166847Y1480897D1*
X3163493Y1471478D1*
X3159608Y1462265D1*
X3155204Y1453288D1*
X3150296Y1444577D1*
X3144899Y1436160D1*
X3139032Y1428064D1*
X3132712Y1420315D1*
X3125962Y1412940D1*
X3118802Y1405960D1*
X3111256Y1399400D1*
X3103349Y1393281D1*
X3095105Y1387622D1*
X3086553Y1382443D1*
X3077719Y1377759D1*
X3068633Y1373586D1*
X3059324Y1369937D1*
X3049822Y1366825D1*
X3040158Y1364259D1*
X3030364Y1362248D1*
X3020471Y1360799D1*
X3010511Y1359915D1*
X3000518Y1359601D1*
X2990522Y1359856D1*
X2980558Y1360681D1*
X2970656Y1362072D1*
X2960850Y1364025D1*
X2951171Y1366534D1*
X2941651Y1369590D1*
X2932321Y1373183D1*
X2923210Y1377303D1*
X2914349Y1381934D1*
X2905766Y1387064D1*
X2897490Y1392674D1*
X2889546Y1398746D1*
X2881962Y1405261D1*
X2874761Y1412198D1*
X2867967Y1419534D1*
X2861602Y1427245D1*
X2855687Y1435306D1*
X2850240Y1443691D1*
X2845281Y1452373D1*
X2840824Y1461324D1*
X2836885Y1470514D1*
X2833475Y1479913D1*
X2830607Y1489491D1*
X2828289Y1499218D1*
X2826529Y1509060D1*
X2825332Y1518987D1*
X2824704Y1528966D1*
X2824645Y1538964D1*
X2825156Y1548950D1*
X2826235Y1558890D1*
X2827878Y1568753D1*
X2830081Y1578506D1*
X2832836Y1588117D1*
X2836135Y1597556D1*
X2839965Y1606792D1*
X2844316Y1615794D1*
X2849173Y1624534D1*
X2854520Y1632983D1*
X2860339Y1641114D1*
X2866613Y1648899D1*
X2873320Y1656315D1*
X2880438Y1663336D1*
X2887945Y1669940D1*
X2895817Y1676106D1*
X2904026Y1681814D1*
X2912548Y1687044D1*
X2921354Y1691780D1*
X2930415Y1696007D1*
X2939703Y1699710D1*
X2949186Y1702878D1*
X2958835Y1705501D1*
X2968617Y1707570D1*
X2978501Y1709077D1*
X2988455Y1710020D1*
X2998447Y1710393D1*
X3008444Y1710197D1*
X3018413Y1709431D1*
X3028322Y1708098D1*
X3038140Y1706203D1*
X3047833Y1703752D1*
X3057371Y1700752D1*
X3066723Y1697213D1*
X3075858Y1693148D1*
X3084746Y1688568D1*
X3093359Y1683490D1*
X3101668Y1677929D1*
X3109648Y1671904D1*
X3117270Y1665433D1*
X3124512Y1658539D1*
X3131349Y1651243D1*
X3137760Y1643570D1*
X3143722Y1635544D1*
X3149218Y1627191D1*
X3154229Y1618538D1*
X3158738Y1609615D1*
X3162732Y1600448D1*
X3166197Y1591069D1*
X3169122Y1581508D1*
X3171497Y1571795D1*
X3173315Y1561963D1*
X3174570Y1552044D1*
X3175258Y1542069D1*
X3175400Y1535000D1*
X3175329Y1530001D1*
X5010014Y1134621D2*
X5001292Y1134930D1*
X4991366Y1136117D1*
X4981579Y1138158D1*
X4972006Y1141038D1*
X4962719Y1144737D1*
X4953786Y1149225D1*
X4945275Y1154469D1*
X4937250Y1160431D1*
X4929771Y1167064D1*
X4922895Y1174320D1*
X4916672Y1182144D1*
X4911149Y1190477D1*
X4906369Y1199257D1*
X4902366Y1208417D1*
X4899171Y1217890D1*
X4896808Y1227603D1*
X4895294Y1237485D1*
X4894641Y1247460D1*
X4894855Y1257455D1*
X4895213Y1261599D1*
X4855285Y1261697D1*
X4847309Y1262301D1*
X4839395Y1263457D1*
X4831579Y1265158D1*
X4823900Y1267396D1*
X4816395Y1270161D1*
X4809099Y1273439D1*
X4802048Y1277214D1*
X4795275Y1281469D1*
X4788813Y1286183D1*
X4782694Y1291333D1*
X4776945Y1296895D1*
X4771596Y1302841D1*
X4766672Y1309144D1*
X4762196Y1315772D1*
X4758189Y1322695D1*
X4754672Y1329879D1*
X4751661Y1337289D1*
X4749171Y1344890D1*
X4747213Y1352645D1*
X4745797Y1360517D1*
X4744929Y1368468D1*
X4744615Y1376460D1*
X4744855Y1384455D1*
X4745648Y1392414D1*
X4746990Y1400299D1*
X4748875Y1408072D1*
X4751295Y1415696D1*
X4754236Y1423134D1*
X4757686Y1430350D1*
X4761627Y1437310D1*
X4766041Y1443980D1*
X4770906Y1450328D1*
X4776200Y1456325D1*
X4781896Y1461940D1*
X4787967Y1467147D1*
X4794384Y1471921D1*
X4801117Y1476239D1*
X4808133Y1480080D1*
X4815397Y1483426D1*
X4822877Y1486261D1*
X4830534Y1488571D1*
X4838333Y1490345D1*
X4846237Y1491575D1*
X4854206Y1492254D1*
X4863014Y1492400D1*
X4895197D1*
X4894641Y1501460D1*
X4894855Y1511455D1*
X4895932Y1521394D1*
X4897865Y1531202D1*
X4900640Y1540806D1*
X4904236Y1550134D1*
X4908626Y1559115D1*
X4913776Y1567683D1*
X4919649Y1575773D1*
X4926200Y1583325D1*
X4933379Y1590281D1*
X4941134Y1596589D1*
X4949406Y1602203D1*
X4958133Y1607080D1*
X4967249Y1611184D1*
X4976685Y1614483D1*
X4986372Y1616952D1*
X4996237Y1618575D1*
X5006204Y1619337D1*
X5065014Y1619400D1*
X5091204Y1619394D1*
X5101186Y1618858D1*
X5111085Y1617460D1*
X5120825Y1615211D1*
X5130335Y1612127D1*
X5139541Y1608231D1*
X5148376Y1603554D1*
X5156774Y1598129D1*
X5164670Y1591998D1*
X5172005Y1585206D1*
X5178726Y1577806D1*
X5184781Y1569851D1*
X5190124Y1561402D1*
X5194717Y1552522D1*
X5198523Y1543279D1*
X5201515Y1533740D1*
X5203671Y1523978D1*
X5204974Y1514067D1*
X5205413Y1504000D1*
X5204980Y1494013D1*
X5203685Y1484100D1*
X5201536Y1474337D1*
X5198550Y1464796D1*
X5194750Y1455550D1*
X5190164Y1446667D1*
X5184826Y1438214D1*
X5178777Y1430256D1*
X5172061Y1422850D1*
X5164730Y1416054D1*
X5156838Y1409917D1*
X5148445Y1404487D1*
X5139613Y1399803D1*
X5130409Y1395901D1*
X5120902Y1392811D1*
X5111163Y1390555D1*
X5101265Y1389150D1*
X5091283Y1388607D1*
X5054838Y1388600D1*
X5055341Y1381079D1*
X5055344Y1373001D1*
X5054828Y1365399D1*
X5091204Y1365394D1*
X5101186Y1364858D1*
X5111085Y1363460D1*
X5120825Y1361211D1*
X5130335Y1358127D1*
X5139541Y1354231D1*
X5148376Y1349554D1*
X5156774Y1344129D1*
X5164670Y1337998D1*
X5172005Y1331206D1*
X5178726Y1323806D1*
X5184781Y1315851D1*
X5190124Y1307402D1*
X5194717Y1298522D1*
X5198523Y1289279D1*
X5201515Y1279740D1*
X5203671Y1269978D1*
X5204974Y1260067D1*
X5205413Y1250000D1*
X5204980Y1240013D1*
X5203685Y1230100D1*
X5201536Y1220337D1*
X5198550Y1210796D1*
X5194750Y1201550D1*
X5190164Y1192667D1*
X5184826Y1184214D1*
X5178777Y1176256D1*
X5172061Y1168850D1*
X5164730Y1162054D1*
X5156838Y1155917D1*
X5148445Y1150487D1*
X5139613Y1145803D1*
X5130409Y1141901D1*
X5120902Y1138811D1*
X5111163Y1136555D1*
X5101265Y1135150D1*
X5091283Y1134607D1*
X5010014Y1134619D1*
X4494941Y1564600D2*
X4355059D1*
X4350121Y1558846D1*
X4343122Y1551707D1*
X4335615Y1545104D1*
X4327641Y1539072D1*
X4319245Y1533646D1*
X4310470Y1528853D1*
X4301366Y1524722D1*
X4291982Y1521273D1*
X4282369Y1518526D1*
X4272580Y1516496D1*
X4262667Y1515194D1*
X4252686Y1514627D1*
X4242689Y1514798D1*
X4232733Y1515706D1*
X4222871Y1517346D1*
X4213156Y1519709D1*
X4203643Y1522783D1*
X4194382Y1526550D1*
X4185425Y1530991D1*
X4176819Y1536080D1*
X4168613Y1541791D1*
X4160850Y1548091D1*
X4153573Y1554947D1*
X4146823Y1562321D1*
X4140634Y1570174D1*
X4135042Y1578461D1*
X4130077Y1587139D1*
X4125765Y1596159D1*
X4122131Y1605473D1*
X4119194Y1615029D1*
X4116970Y1624777D1*
X4115472Y1634661D1*
X4114707Y1644630D1*
X4114679Y1654627D1*
X4115389Y1664600D1*
X4116834Y1674493D1*
X4119004Y1684252D1*
X4121888Y1693825D1*
X4125471Y1703158D1*
X4129733Y1712202D1*
X4134651Y1720907D1*
X4140198Y1729225D1*
X4146343Y1737111D1*
X4153053Y1744522D1*
X4160292Y1751418D1*
X4168020Y1757761D1*
X4176195Y1763516D1*
X4184772Y1768653D1*
X4193705Y1773142D1*
X4202945Y1776961D1*
X4212442Y1780087D1*
X4222143Y1782503D1*
X4231996Y1784198D1*
X4241947Y1785160D1*
X4251942Y1785386D1*
X4261927Y1784874D1*
X4271847Y1783626D1*
X4281647Y1781650D1*
X4291275Y1778956D1*
X4300678Y1775558D1*
X4309804Y1771477D1*
X4318605Y1766733D1*
X4327031Y1761352D1*
X4335038Y1755365D1*
X4342581Y1748803D1*
X4349619Y1741702D1*
X4355034Y1735413D1*
X4494941Y1735400D1*
X4499629Y1740879D1*
X4506609Y1748037D1*
X4514097Y1754661D1*
X4522054Y1760714D1*
X4530436Y1766164D1*
X4539197Y1770980D1*
X4548290Y1775137D1*
X4557665Y1778611D1*
X4567270Y1781385D1*
X4577054Y1783441D1*
X4586963Y1784771D1*
X4596943Y1785365D1*
X4606939Y1785222D1*
X4616898Y1784341D1*
X4626765Y1782728D1*
X4636486Y1780391D1*
X4646008Y1777344D1*
X4655279Y1773602D1*
X4664248Y1769186D1*
X4672868Y1764120D1*
X4681090Y1758432D1*
X4688870Y1752153D1*
X4696165Y1745317D1*
X4702936Y1737962D1*
X4709146Y1730126D1*
X4714761Y1721854D1*
X4719750Y1713190D1*
X4724087Y1704182D1*
X4727746Y1694878D1*
X4730710Y1685330D1*
X4732960Y1675588D1*
X4734486Y1665708D1*
X4735278Y1655742D1*
X4735308Y1645001D1*
X4734570Y1635031D1*
X4733099Y1625142D1*
X4730901Y1615388D1*
X4727991Y1605824D1*
X4724382Y1596500D1*
X4720095Y1587468D1*
X4715154Y1578777D1*
X4709585Y1570474D1*
X4703418Y1562605D1*
X4696687Y1555212D1*
X4689429Y1548336D1*
X4681684Y1542014D1*
X4673493Y1536281D1*
X4664902Y1531169D1*
X4655956Y1526703D1*
X4646706Y1522911D1*
X4637201Y1519811D1*
X4627493Y1517421D1*
X4617636Y1515753D1*
X4607682Y1514818D1*
X4597686Y1514620D1*
X4587703Y1515160D1*
X4577787Y1516435D1*
X4567992Y1518438D1*
X4558371Y1521158D1*
X4548978Y1524581D1*
X4539862Y1528688D1*
X4531075Y1533456D1*
X4522663Y1538860D1*
X4514673Y1544869D1*
X4507148Y1551452D1*
X4500130Y1558572D1*
X4494955Y1564603D1*
X5050000Y475380D2*
D18*
Y124620D1*
X4874620Y300000D2*
X5225380D1*
X2600000Y471380D2*
Y120620D1*
X2424620Y296000D2*
X2775380D1*
X6000000D2*
Y140619D1*
X5844620Y296000D2*
X6155381D1*
X3785000Y1710380D2*
Y1359620D1*
X3609620Y1535000D2*
X3960380D1*
X2200000Y470380D2*
Y119620D1*
Y295000D2*
X2375380D1*
X4900013Y1492380D2*
Y1261619D1*
X4744633Y1377000D2*
X5055394D1*
D19*
X5050000Y300000D3*
D20*
Y808000D3*
D19*
X2600000Y296000D3*
D20*
Y804000D3*
D21*
X349976Y1880000D3*
D22*
Y680000D3*
Y1320000D3*
D23*
X6000000Y550000D3*
D24*
Y296000D3*
D25*
X3300013Y1896000D3*
X3150013Y2023000D3*
X3300013Y2150000D3*
D19*
X3665000Y1900000D3*
D26*
X4935000D3*
D20*
X4423000Y774000D3*
D26*
X4677000Y520000D3*
X4423000Y266000D3*
D19*
X3785000Y265000D3*
D26*
Y1535000D3*
D19*
X3400000D3*
D26*
Y265000D3*
D19*
X3000000D3*
D26*
Y1535000D3*
D19*
X4935000Y2250000D3*
D26*
X3665000D3*
D19*
X1795000D3*
D26*
X525000D3*
D19*
X2200000Y295000D3*
D26*
Y1565000D3*
D19*
X5400000Y2250000D3*
D26*
Y980000D3*
D25*
X5050013Y1250000D3*
X4900013Y1377000D3*
X5050013Y1504000D3*
X6284481Y2086259D2*
D50*
X6333195Y2213868D1*
X6381768Y2086259D1*
X6363518Y2128795D2*
X6302731D1*
X6178443Y2153082D2*
X6184479Y2165295D1*
X6202729Y2171332D1*
X6220979D1*
X6239229Y2165295D1*
X6245266Y2153082D1*
X6239229Y2141009D1*
X6227016Y2134832D1*
X6196693Y2128795D1*
X6184479Y2122759D1*
X6178443Y2110545D1*
Y2104509D1*
X6184479Y2092436D1*
X6202729Y2086259D1*
X6220979D1*
X6239229Y2092436D1*
X6245266Y2104509D1*
X6139227Y2213868D2*
Y2086259D1*
Y2147045D2*
X6120977Y2165295D1*
X6108763Y2171332D1*
X6090513D1*
X6078440Y2165295D1*
X6072404Y2147045D1*
Y2086259D1*
X6033188Y2213868D2*
Y2086259D1*
X5993972Y2134832D2*
X5921113D1*
Y2147045D1*
X5927149Y2159259D1*
X5933186Y2165295D1*
X5945399Y2171332D1*
X5963649D1*
X5975722Y2165295D1*
X5987936Y2153082D1*
X5993972Y2134832D1*
Y2122759D1*
X5987936Y2104509D1*
X5975722Y2092436D1*
X5963649Y2086259D1*
X5945399D1*
X5933186Y2092436D1*
X5921113Y2104509D1*
X5875720Y2171332D2*
X5839361Y2086259D1*
X5851434Y2061972D1*
X5863647Y2049759D1*
X5875720Y2043722D1*
X5881897D1*
X5802861Y2171332D2*
X5839361Y2086259D1*
X6381767Y1953082D2*
X6327158D1*
X6308908Y1959259D1*
X6302731Y1965295D1*
X6296694Y1977368D1*
Y1989582D1*
X6302731Y2001655D1*
X6308908Y2007832D1*
X6327158Y2013868D1*
X6381767D1*
Y1886259D1*
X6339231Y1953082D2*
X6296694Y1886259D1*
X6227155Y1971332D2*
X6239228Y1965295D1*
X6251442Y1953082D1*
X6257478Y1934832D1*
Y1922759D1*
X6251442Y1904509D1*
X6239228Y1892436D1*
X6227155Y1886259D1*
X6208905D1*
X6196692Y1892436D1*
X6184619Y1904509D1*
X6178442Y1922759D1*
Y1934832D1*
X6184619Y1953082D1*
X6196692Y1965295D1*
X6208905Y1971332D1*
X6227155D1*
X6139226Y2013868D2*
Y1886259D1*
X6100011Y2013868D2*
Y1886259D1*
X6375590Y2383405D2*
Y2389441D1*
X6369554Y2401655D1*
X6363517Y2407691D1*
X6351304Y2413728D1*
X6327017D1*
X6314944Y2407691D1*
X6308908Y2401655D1*
X6302731Y2389441D1*
Y2377368D1*
X6308908Y2365155D1*
X6320981Y2347045D1*
X6381767Y2286259D1*
X6296694D1*
X6220978Y2413728D2*
X6239228Y2407691D1*
X6251442Y2389441D1*
X6257478Y2359118D1*
Y2340868D1*
X6251442Y2310545D1*
X6239228Y2292295D1*
X6220978Y2286259D1*
X6208905D1*
X6190655Y2292295D1*
X6178582Y2310545D1*
X6172405Y2340868D1*
Y2359118D1*
X6178582Y2389441D1*
X6190655Y2407691D1*
X6208905Y2413728D1*
X6220978D1*
X6178582Y2389441D2*
X6251442Y2310545D1*
X6133190Y2389441D2*
X6120976Y2395618D1*
X6102726Y2413728D1*
Y2286259D1*
X5984474Y2371332D2*
X5990651Y2353082D1*
X6002724Y2340868D1*
X6020974Y2334832D1*
X6027010D1*
X6045260Y2340868D1*
X6057334Y2353082D1*
X6063510Y2371332D1*
Y2377368D1*
X6057334Y2395618D1*
X6045260Y2407691D1*
X6027010Y2413728D1*
X6020974D1*
X6002724Y2407691D1*
X5990651Y2395618D1*
X5984474Y2371332D1*
Y2340868D1*
X5990651Y2310545D1*
X6002724Y2292295D1*
X6020974Y2286259D1*
X6033047D1*
X6051297Y2292295D1*
X6057334Y2304509D1*
M02*
