G04 DipTrace 3.3.1.3*
G04 crowbar-revA-TopSilk.gbr*
%MOMM*%
G04 #@! TF.FileFunction,Legend,Top*
G04 #@! TF.Part,Single*
%ADD10C,0.254*%
%ADD50C,0.19608*%
%ADD51C,0.77778*%
%FSLAX35Y35*%
G04*
G71*
G90*
G75*
G01*
G04 TopSilk*
%LPD*%
X5202400Y858495D2*
D10*
Y249505D1*
X4897600Y858495D2*
Y249505D1*
G03X5202400Y249505I152400J-304D01*
G01*
Y858495D2*
G03X4897600Y858495I-152400J304D01*
G01*
X2752400Y854495D2*
Y245505D1*
X2447600Y854495D2*
Y245505D1*
G03X2752400Y245505I152400J-304D01*
G01*
Y854495D2*
G03X2447600Y854495I-152400J304D01*
G01*
X6190342Y169017D2*
X5809658D1*
X6191104Y169588D2*
G03X5808896Y169588I-191104J253481D01*
G01*
X2559961Y1783000D2*
G02X2559961Y2273000I393378J245000D01*
G01*
X3434995Y2215100D2*
Y1830900D1*
X2559961Y1773000D2*
X3010000D1*
Y2273000D1*
X2559961D1*
Y1773000D1*
X3173024Y1896000D2*
X3010000D1*
X3173024Y2150000D2*
X3010000D1*
X4681275Y1773000D2*
X3918725D1*
Y2027000D2*
Y1773000D1*
X4681275Y2027000D2*
X3918725D1*
X4681275D2*
Y1773000D1*
X4570003Y850018D2*
X4774979D1*
Y639979D1*
Y400021D2*
Y189982D1*
X4550004D1*
X4290012D2*
X4075000D1*
Y509977D1*
Y850018D1*
X4270012D1*
X3912000Y1281275D2*
Y518725D1*
X3658000D2*
X3912000D1*
X3658000Y1281275D2*
Y518725D1*
Y1281275D2*
X3912000D1*
X3273000Y518725D2*
Y1281275D1*
X3527000D2*
X3273000D1*
X3527000Y518725D2*
Y1281275D1*
Y518725D2*
X3273000D1*
X3127000Y1281275D2*
Y518725D1*
X2873000D2*
X3127000D1*
X2873000Y1281275D2*
Y518725D1*
Y1281275D2*
X3127000D1*
X3918725Y2377000D2*
X4681275D1*
Y2123000D2*
Y2377000D1*
X3918725Y2123000D2*
X4681275D1*
X3918725D2*
Y2377000D1*
X778725D2*
X1541275D1*
Y2123000D2*
Y2377000D1*
X778725Y2123000D2*
X1541275D1*
X778725D2*
Y2377000D1*
X2327000Y1311275D2*
Y548725D1*
X2073000D2*
X2327000D1*
X2073000Y1311275D2*
Y548725D1*
Y1311275D2*
X2327000D1*
X5273000Y1233725D2*
Y1996275D1*
X5527000D2*
X5273000D1*
X5527000Y1233725D2*
Y1996275D1*
Y1233725D2*
X5273000D1*
X4309961Y1137000D2*
G02X4309961Y1627000I393378J245000D01*
G01*
X5184995Y1569100D2*
Y1184900D1*
X4309961Y1127000D2*
X4760000D1*
Y1627000D1*
X4309961D1*
Y1127000D1*
X4923024Y1250000D2*
X4760000D1*
X4923024Y1504000D2*
X4760000D1*
X5055515Y582064D2*
D50*
X5049479Y594137D1*
X5037265Y606350D1*
X5025192Y612387D1*
X5000906D1*
X4988692Y606350D1*
X4976619Y594137D1*
X4970442Y582064D1*
X4964406Y563814D1*
Y533350D1*
X4970442Y515240D1*
X4976619Y503027D1*
X4988692Y490954D1*
X5000906Y484777D1*
X5025192D1*
X5037265Y490954D1*
X5049479Y503027D1*
X5055515Y515240D1*
X5094731Y587960D2*
X5106944Y594137D1*
X5125194Y612246D1*
Y484777D1*
X2581010Y575664D2*
X2574974Y587737D1*
X2562760Y599950D1*
X2550687Y605987D1*
X2526401D1*
X2514187Y599950D1*
X2502114Y587737D1*
X2495937Y575664D1*
X2489901Y557414D1*
Y526950D1*
X2495937Y508840D1*
X2502114Y496627D1*
X2514187Y484554D1*
X2526401Y478377D1*
X2550687D1*
X2562760Y484554D1*
X2574974Y496627D1*
X2581010Y508840D1*
X2626403Y575523D2*
Y581560D1*
X2632440Y593773D1*
X2638476Y599810D1*
X2650690Y605846D1*
X2674976D1*
X2687049Y599810D1*
X2693086Y593773D1*
X2699263Y581560D1*
Y569487D1*
X2693086Y557273D1*
X2681013Y539164D1*
X2620226Y478377D1*
X2705299D1*
X113794Y2202624D2*
X241403D1*
X241404Y2245161D1*
X235227Y2263411D1*
X223154Y2275624D1*
X210940Y2281661D1*
X192831Y2287697D1*
X162367D1*
X144117Y2281661D1*
X132044Y2275624D1*
X119831Y2263411D1*
X113794Y2245161D1*
Y2202624D1*
X138221Y2326913D2*
X132044Y2339126D1*
X113934Y2357376D1*
X241404D1*
X6145318Y876503D2*
Y748894D1*
X6187854D1*
X6206104Y755071D1*
X6218318Y767144D1*
X6224354Y779357D1*
X6230391Y797467D1*
Y827930D1*
X6224354Y846180D1*
X6218318Y858253D1*
X6206104Y870467D1*
X6187854Y876503D1*
X6145318D1*
X6275784Y846040D2*
Y852076D1*
X6281820Y864290D1*
X6287857Y870326D1*
X6300070Y876363D1*
X6324357D1*
X6336430Y870326D1*
X6342466Y864290D1*
X6348643Y852076D1*
Y840003D1*
X6342466Y827790D1*
X6330393Y809680D1*
X6269607Y748894D1*
X6354680D1*
X2725467Y2098987D2*
X2713394Y2093090D1*
X2701181Y2080877D1*
X2695144Y2068664D1*
X2688967Y2050414D1*
Y2020090D1*
X2695144Y2001840D1*
X2701181Y1989767D1*
X2713394Y1977554D1*
X2725467Y1971517D1*
X2749754D1*
X2761967Y1977554D1*
X2774040Y1989767D1*
X2780077Y2001840D1*
X2786254Y2020090D1*
Y2050414D1*
X2780077Y2068664D1*
X2774040Y2080877D1*
X2761967Y2093090D1*
X2749754Y2098987D1*
X2725467D1*
X2743717Y1995804D2*
X2780077Y1959304D1*
X2825469Y2074560D2*
X2837683Y2080737D1*
X2855933Y2098846D1*
Y1971377D1*
X4202624Y1902200D2*
X4257234D1*
X4275484Y1908377D1*
X4281660Y1914414D1*
X4287697Y1926487D1*
Y1938700D1*
X4281660Y1950773D1*
X4275484Y1956950D1*
X4257234Y1962987D1*
X4202624D1*
Y1835377D1*
X4245160Y1902200D2*
X4287697Y1835377D1*
X4326913Y1938560D2*
X4339126Y1944737D1*
X4357376Y1962846D1*
Y1835377D1*
X4181319Y519200D2*
X4235929D1*
X4254179Y525377D1*
X4260356Y531414D1*
X4266392Y543487D1*
Y555700D1*
X4260356Y567773D1*
X4254179Y573950D1*
X4235929Y579987D1*
X4181319D1*
Y452377D1*
X4223856Y519200D2*
X4266392Y452377D1*
X4311785Y549523D2*
Y555560D1*
X4317821Y567773D1*
X4323858Y573810D1*
X4336071Y579846D1*
X4360358D1*
X4372431Y573810D1*
X4378467Y567773D1*
X4384644Y555560D1*
Y543487D1*
X4378467Y531273D1*
X4366394Y513164D1*
X4305608Y452377D1*
X4390681D1*
X3782800Y795319D2*
Y849929D1*
X3776623Y868179D1*
X3770587Y874356D1*
X3758514Y880392D1*
X3746300D1*
X3734227Y874356D1*
X3728050Y868179D1*
X3722013Y849929D1*
Y795319D1*
X3849623D1*
X3782800Y837856D2*
X3849623Y880392D1*
X3722154Y931822D2*
Y998504D1*
X3770727Y962145D1*
Y980394D1*
X3776764Y992468D1*
X3782800Y998504D1*
X3801050Y1004681D1*
X3813123D1*
X3831373Y998504D1*
X3843587Y986431D1*
X3849623Y968181D1*
Y949931D1*
X3843587Y931821D1*
X3837410Y925785D1*
X3825337Y919608D1*
X3397800Y792301D2*
Y846911D1*
X3391623Y865161D1*
X3385587Y871338D1*
X3373514Y877374D1*
X3361300D1*
X3349227Y871338D1*
X3343050Y865161D1*
X3337013Y846911D1*
Y792301D1*
X3464623D1*
X3397800Y834838D2*
X3464623Y877374D1*
Y977376D2*
X3337154D1*
X3422087Y916590D1*
Y1007699D1*
X2997800Y795319D2*
Y849929D1*
X2991623Y868179D1*
X2985587Y874356D1*
X2973514Y880392D1*
X2961300D1*
X2949227Y874356D1*
X2943050Y868179D1*
X2937013Y849929D1*
Y795319D1*
X3064623D1*
X2997800Y837856D2*
X3064623Y880392D1*
X2937154Y992468D2*
Y931822D1*
X2991764Y925785D1*
X2985727Y931821D1*
X2979550Y950071D1*
Y968181D1*
X2985727Y986431D1*
X2997800Y998644D1*
X3016050Y1004681D1*
X3028123D1*
X3046373Y998644D1*
X3058587Y986431D1*
X3064623Y968181D1*
Y950071D1*
X3058587Y931821D1*
X3052410Y925785D1*
X3040337Y919608D1*
X4198408Y2252200D2*
X4253017D1*
X4271267Y2258377D1*
X4277444Y2264414D1*
X4283481Y2276487D1*
Y2288700D1*
X4277444Y2300773D1*
X4271267Y2306950D1*
X4253017Y2312987D1*
X4198408D1*
Y2185377D1*
X4240944Y2252200D2*
X4283481Y2185377D1*
X4395556Y2294737D2*
X4389519Y2306810D1*
X4371269Y2312846D1*
X4359196D1*
X4340946Y2306810D1*
X4328733Y2288560D1*
X4322696Y2258237D1*
Y2227914D1*
X4328733Y2203627D1*
X4340946Y2191414D1*
X4359196Y2185377D1*
X4365233D1*
X4383342Y2191414D1*
X4395556Y2203627D1*
X4401592Y2221877D1*
Y2227914D1*
X4395556Y2246164D1*
X4383342Y2258237D1*
X4365233Y2264273D1*
X4359196D1*
X4340946Y2258237D1*
X4328733Y2246164D1*
X4322696Y2227914D1*
X1065319Y2252200D2*
X1119929D1*
X1138179Y2258377D1*
X1144356Y2264414D1*
X1150392Y2276487D1*
Y2288700D1*
X1144356Y2300773D1*
X1138179Y2306950D1*
X1119929Y2312987D1*
X1065319D1*
Y2185377D1*
X1107856Y2252200D2*
X1150392Y2185377D1*
X1213894D2*
X1274681Y2312846D1*
X1189608D1*
X2197800Y825390D2*
Y879999D1*
X2191623Y898249D1*
X2185587Y904426D1*
X2173514Y910463D1*
X2161300D1*
X2149227Y904426D1*
X2143050Y898249D1*
X2137013Y879999D1*
Y825390D1*
X2264623D1*
X2197800Y867926D2*
X2264623Y910462D1*
X2137154Y980001D2*
X2143190Y961892D1*
X2155264Y955715D1*
X2167477D1*
X2179550Y961892D1*
X2185727Y973965D1*
X2191764Y998251D1*
X2197800Y1016501D1*
X2210014Y1028574D1*
X2222087Y1034611D1*
X2240337D1*
X2252410Y1028574D1*
X2258587Y1022538D1*
X2264623Y1004288D1*
Y980001D1*
X2258587Y961892D1*
X2252410Y955715D1*
X2240337Y949678D1*
X2222087D1*
X2210014Y955715D1*
X2197800Y967928D1*
X2191764Y986038D1*
X2185727Y1010324D1*
X2179550Y1022538D1*
X2167477Y1028574D1*
X2155264D1*
X2143190Y1022538D1*
X2137154Y1004288D1*
Y980001D1*
X5397800Y1513338D2*
Y1567947D1*
X5391623Y1586197D1*
X5385587Y1592374D1*
X5373514Y1598411D1*
X5361300D1*
X5349227Y1592374D1*
X5343050Y1586197D1*
X5337013Y1567947D1*
Y1513338D1*
X5464623D1*
X5397800Y1555874D2*
X5464623Y1598411D1*
X5379550Y1716663D2*
X5397800Y1710486D1*
X5410014Y1698413D1*
X5416050Y1680163D1*
Y1674126D1*
X5410014Y1655876D1*
X5397800Y1643803D1*
X5379550Y1637626D1*
X5373514D1*
X5355264Y1643803D1*
X5343190Y1655876D1*
X5337154Y1674126D1*
Y1680163D1*
X5343190Y1698413D1*
X5355264Y1710486D1*
X5379550Y1716663D1*
X5410014D1*
X5440337Y1710486D1*
X5458587Y1698413D1*
X5464623Y1680163D1*
Y1668090D1*
X5458587Y1649840D1*
X5446373Y1643803D1*
X4435074Y1462987D2*
Y1371877D1*
X4441110Y1353627D1*
X4453324Y1341554D1*
X4471574Y1335377D1*
X4483647D1*
X4501897Y1341554D1*
X4514110Y1353627D1*
X4520147Y1371877D1*
Y1462987D1*
X4559363Y1438560D2*
X4571576Y1444737D1*
X4589826Y1462846D1*
Y1335377D1*
X2228542Y1985847D2*
D51*
X1922335D1*
X2075242Y2138754D2*
Y1832547D1*
M02*
