G04 DipTrace 3.3.1.3*
G04 crowbar-revA-TopMask.gbr*
%MOMM*%
G04 #@! TF.FileFunction,Soldermask,Top*
G04 #@! TF.Part,Single*
%ADD28C,3.4*%
%ADD34C,2.5*%
%ADD36O,2.1X1.3*%
%ADD38R,2.1X2.1*%
%ADD40C,2.1*%
%ADD42O,5.1X5.7*%
%ADD44C,4.1*%
%ADD46R,2.5X2.5*%
%ADD48C,2.5*%
%FSLAX35Y35*%
G04*
G71*
G90*
G75*
G01*
G04 TopMask*
%LPD*%
D48*
X5050000Y300000D3*
D46*
Y808000D3*
D48*
X2600000Y296000D3*
D46*
Y804000D3*
D44*
X349976Y1880000D3*
D42*
Y680000D3*
Y1320000D3*
D40*
X6000000Y550000D3*
D38*
Y296000D3*
D36*
X3300013Y1896000D3*
X3150013Y2023000D3*
X3300013Y2150000D3*
D48*
X3665000Y1900000D3*
D34*
X4935000D3*
D46*
X4423000Y774000D3*
D34*
X4677000Y520000D3*
X4423000Y266000D3*
D48*
X3785000Y265000D3*
D34*
Y1535000D3*
D48*
X3400000D3*
D34*
Y265000D3*
D48*
X3000000D3*
D34*
Y1535000D3*
D48*
X4935000Y2250000D3*
D34*
X3665000D3*
D48*
X1795000D3*
D34*
X525000D3*
D48*
X2200000Y295000D3*
D34*
Y1565000D3*
D48*
X5400000Y2250000D3*
D34*
Y980000D3*
D36*
X5050013Y1250000D3*
X4900013Y1377000D3*
X5050013Y1504000D3*
D28*
X6000000Y1250000D3*
G36*
X350000Y1550000D2*
X600000D1*
X750000Y1700000D1*
Y1850000D1*
X1950000D1*
Y1100000D1*
X350000D1*
Y1550000D1*
G37*
G36*
X1950000Y900000D2*
Y150000D1*
X350000D1*
Y900000D1*
X1950000D1*
G37*
M02*
