M48
METRIC,0000.00
T01C0.7
T02C0.8
T03C0.9
T04C1.0
T05C3.4
%
T01
X+003300Y+001896
X+003150Y+002023
X+003300Y+002150
X+004900Y+001377
X+005050Y+001250
X+005050Y+001504
T02
X+006000Y+000550
X+006000Y+000296
X+004677Y+000520
X+004423Y+000774
X+004423Y+000266
X+004250Y+001650
X+004600Y+001650
X+001900Y+001600
X+001900Y+001400
X+001700Y+001200
X+001400Y+001200
X+001100Y+001200
X+000800Y+001200
X+000800Y+000800
X+001100Y+000800
X+001400Y+000800
X+001700Y+000800
X+001900Y+000600
X+001900Y+000400
X+001700Y+000200
X+001400Y+000200
X+001100Y+000200
X+000800Y+000200
X+000500Y+000200
X+000200Y+000200
X+000800Y+001800
X+001100Y+001800
X+001400Y+001800
X+001700Y+001800
T03
X+005050Y+000300
X+005050Y+000808
X+005400Y+000980
X+004935Y+001900
X+004935Y+002250
X+005400Y+002250
X+003665Y+002250
X+003665Y+001900
X+003785Y+001535
X+003400Y+001535
X+003000Y+001535
X+002200Y+001565
X+001795Y+002250
X+000525Y+002250
X+002600Y+000804
X+002600Y+000296
X+002200Y+000295
X+003000Y+000265
X+003400Y+000265
X+003785Y+000265
T04
X+000350Y+001755G85X+000350Y+002005
X+000350Y+001120G85X+000350Y+001520
X+000350Y+000480G85X+000350Y+000880
T00
M30
